<?xml version="1.0" encoding="UTF-8"?><svg xmlns="http://www.w3.org/2000/svg" viewBox="0 0 1844.12 880.18"><defs><style>.d{fill:#fff;}</style></defs><g id="a"/><g id="b"><g id="c"><g><path class="d" d="M1447.98,482.83c15.53-5.96,30.13-3.43,44.73-2.62,6.38,.35,12.89-.37,19.25-1.29,5.93-.86,11.8,2.69,13.6,8.54,1.34,4.33,3.52,8.4,5.18,12.65,1.37,3.51,2.7,7.04,3.74,10.66,.85,2.96,2.79,3.27,4.94,2.17,2.48-1.26,4.94-2.8,6.97-4.69,12.59-11.74,25.18-23.48,37.49-35.51,5.2-5.09,9.69-10.9,14.53-16.36,2.97-3.35,1.58-4.87-2.06-6.36-8.4-3.45-15.31-8.97-21.42-15.74-8.75-9.7-18.13-18.83-26.78-28.62-4.77-5.4-9.6-11.18-12.48-17.65-2.38-5.34-.8-11.68,2.08-17.32,3.03-5.94,5.92-12.01,8.1-18.3,3.24-9.35,13.67-16.93,20.42-15.74,2.89,.51,5.53,2.71,8.14,4.35,1.17,.74,2.01,2.01,3,3.03,1.14-1.35,2.64-2.55,3.32-4.11,.56-1.26,.03-2.96,.19-4.45,.33-3.26,1.84-6.27,5.32-5.88,2.22,.25,5.84,2.54,6,4.2,.83,8.35,7.57,10.7,13.04,14.66,9.71,7.04,19.22,14.37,28.59,21.85,3.77,3.01,5.19,3.31,8.07-.7,3.96-5.51,7.55-11.29,11.62-16.71,15.03-20.04,32.45-37.45,54.72-49.58,8.22-4.47,14.36-3.5,20.98,3.96,10.82,12.19,23.51,21.27,39.98,24.45,8.8,1.7,14.58,11.83,13.41,20.93-.73,5.64-1.05,11.35-6.96,13.98-3.18,1.42-6.86,1.99-10.37,2.35-6.43,.66-11.69,3.7-15.99,8.05-7.52,7.6-16.57,13.99-20.8,25.69,4.18,2.38,8.89,4.61,13.06,7.58,4.75,3.39,9.11,7.34,13.44,11.27,1.5,1.36,2.48,3.32,3.59,5.08,3.72,5.85,7.52,11.65,11.03,17.62,2.43,4.12,4.89,8.32,6.5,12.79,1.45,4.04,2.08,8.46,2.51,12.77,.64,6.35-4.41,9.53-8.67,12.15-8.92,5.48-14.44,13.87-20.49,21.83-7.16,9.42-13.93,19.13-20.82,28.74-.85,1.19-1.58,2.5-2.19,3.83-1.55,3.39-3.76,6.19-7.81,5.6-4.11-.6-7.98-1.36-9.92-6.47-1.94-5.11-4.96-10.08-8.53-14.22-5.64-6.55-12-12.5-18.38-18.35-1.18-1.08-4.73-1.41-5.79-.48-13.51,11.76-26.92,23.64-40.04,35.82-13.35,12.39-25.16,26.22-36.54,40.41-.8,1-1.9,2.34-2.97,2.45-6.72,.65-12.66,4.91-20.22,2.41-10.06-3.33-18.02-9.42-26.27-15.52-5.38-3.98-11.26-7.48-17.32-10.32-6.58-3.09-11.47-6.92-11.99-14.71-.06-.9-.75-1.76-1.01-2.32-12.02,3.59-23.74,7.15-35.49,10.58-10.37,3.03-20.57,1.69-30.91-.8-13.54-3.27-26.86-8.08-41.12-7.33-3.95,.21-7.93,.48-11.81,1.2-7.12,1.32-12.09-2.12-12.48-9.17-.42-7.61-.76-15.22-1.01-22.83-.25-7.45,2.62-10.19,10.19-9.89,1.14,.04,2.26,.24,4.31,.46-1.24-17.29-2.47-34.42-3.69-51.54-.51-.02-1.01-.04-1.52-.06-1.22,6.45-2.16,12.97-3.72,19.33-2.35,9.62-5.67,18.88-11.84,26.88-2.7,3.5-4.62,7.77-7.81,10.69-6.88,6.28-13.95,12.51-21.68,17.66-9.97,6.64-20.44,12.98-32.66,14.42-8.23,.97-16.65,1.17-24.92,.68-10.2-.6-20.31-2.46-28.79-8.91-3.18-2.42-6.06-5.22-9.11-7.87-2.99,4.08-5.87,9.73-12.91,10.41-.58,.06-1.1,1.17-1.58,1.84-6.02,8.4-13.37,10.36-22.59,5.63-6.71-3.44-13.38-2.87-20.5-1.54-5.54,1.04-11.59,2.28-16.81-1.41-1.76-1.24-3.5-3.13-4.23-5.11-3.91-10.53-7.05-21.37-11.31-31.75-6.21-15.12-12.55-30.25-20-44.78-4.72-9.22-10.13-17.94-11.81-28.61-.12,.63-.3,1.25-.35,1.89-.06,.83-.04,1.67-.02,2.5,.33,22.67,.34,45.36,1.16,68.01,.35,9.64,2.4,19.21,3.67,28.82,.77,5.83-.23,12.79-7.91,14.73-11.43,2.9-22.65,6.93-34.22,8.89-9.45,1.6-18.72-.58-25.33-8.88-2.6-3.26-3.24-6.76-1.04-10.16,4.59-7.11,2.82-14.51,1.7-21.98-1.78-11.87-1.56-23.74-.09-35.65,.79-6.38,.57-12.9,1.49-19.25,1.78-12.33,4.18-24.58,6.06-36.9,1.19-7.8,2.6-15.66,2.71-23.51,.35-25.99,.15-51.99,.16-77.99,0-7.58,1.37-9.15,8.91-8.87,8.78,.33,17.55,1.1,26.32,1.68,.16,.01,.35,.13,.47,.08,9.27-3.7,12.75,2.78,17.61,8.81,4.5,5.59,11.05,9.57,16.82,14.09,5,3.92,10.18,7.61,16.31,12.17,.24-3.48,.59-5.69,.51-7.9-.23-7.1-.61-14.19-.96-21.29-.18-3.59,3.96-7.61,9.43-7.54,11.4,.14,22.8,1,34.19,1.63,5.96,.33,11.9,.87,17.86,1.19,4.64,.25,7.79,3.96,7.34,8.41-.53,5.13-1.18,10.33-.94,15.46,.69,14.68,2.01,29.34,2.68,44.02,.42,9.24,.08,18.52,.18,27.78,.27,24.61,.23,49.23,1.05,73.83,.47,14.33,2.35,28.61,3.6,43,4.23,.71,7.1-1.34,8.52-6.62,2.27-8.43,1.76-16.91,.48-25.45-1.31-8.76-2.64-17.54-3.32-26.36-1.27-16.64-2.02-33.31-3.11-49.96-.9-13.82-2.92-27.65-2.71-41.45,.22-14.96,2.39-29.9,3.85-44.83,.35-3.56,1.27-7.07,1.94-10.6,.82-4.33,4.29-6.57,9.27-7.27,19.16-2.69,37.35,.98,54.95,8.18,4.35,1.78,8.78,4.16,12.16,7.35,12.66,11.92,24.66,24.43,32.63,40.25,6.19,12.29,12.78,24.39,19.33,36.5,1.39,2.58,3.51,4.75,5.05,7.26,4.3,7.04,8.46,14.16,12.27,20.56-.17-1.33-.11-3.98-.86-6.39-8.61-27.35-5.47-55.52-5.62-83.41-.03-6.4,1.56-12.38-2.5-18.41-2.74-4.07,1.98-10.9,7.04-10.75,15.89,.48,31.76,1.3,47.65,1.88,16.73,.62,33.17-.05,49.32-5.92,6.26-2.27,13.95-1.59,20.83-.85,5.36,.58,7.71,5.34,7.05,10.69-1.31,10.59-2.64,21.18-3.99,31.76-1.17,9.18-4.42,13.98-11.23,14.67-3.57,.36-7.33-1.25-11.02-1.9-5.45-.96-10.88-2.28-16.38-2.66-6.63-.46-13.32-.11-19.99-.11h-20.48v29.66c8.45-2.46,16.91-5.45,25.61-7.32,10.1-2.17,20.39-3.6,30.66-4.8,2.35-.28,4.9,1.9,7.46,2.58,15.19,4.06,19.42,16.7,23.41,29.59,2.59,8.37,2.8,16.71,1.15,25.35-.87,4.57,.15,9.46-.23,14.16-1.26,15.47-13.98,24.44-28.72,18.27-4.66-1.95-9.29-4.74-14.14-5.25-6.02-.64-12.24,.68-18.38,1.18-.65,.05-1.26,.42-1.91,.51-3.05,.41-8.27-.05-8.77,1.3-1.72,4.55-1.77,9.72-2.58,15.53Zm-321.82,39.43c.76-2.73,1.64-4.43,1.65-6.14,.12-13.11,.2-26.22,.06-39.33-.24-22.44-.71-44.88-.85-67.32,0-1.65,1.67-4.35,3.02-4.68,1.38-.34,4.09,1.25,4.87,2.71,2.23,4.17,3.84,8.67,5.56,13.1,3.13,8.05,5.55,16.45,9.38,24.15,5.37,10.84,12.26,20.93,17.58,31.79,7.05,14.39,13.4,29.14,19.6,43.92,1.52,3.61,3.44,4.54,6.7,3.87,4.01-.82,7.92-2.33,11.95-2.7,3.73-.34,4.18-2.12,4.24-5.2,.21-11.44,.51-22.88,1.01-34.32,.19-4.42,.83-8.85,1.59-13.22,1.67-9.51,3.73-18.95,5.31-28.47,2.22-13.43,4.39-26.88,6.12-40.38,1.61-12.56,3.44-25.17,3.66-37.79,.2-11.92-1.57-23.87-2.47-35.74-13.64-.81-26.41-1.57-38.62-2.29,0,12.27,.1,24.02-.04,35.76-.07,5.52,1.31,10.35,4.79,14.72,1.9,2.39,4.1,5.11,4.56,7.94,1.16,7.14-.31,13.7-6.92,18.17-2.22,1.5-3.84,4.16-6.21,5.13-6.71,2.74-12.26-.72-17.16-4.74-6.59-5.41-9.66-13.23-12.64-20.9-3.67-9.46-6.22-19.39-12.8-27.51-.77-.95-.71-2.53-1.35-3.63-2.7-4.61-5.29-9.31-8.39-13.65-1.98-2.76-4.81-4.9-7.21-7.37-3.54-3.64-6.41-8.96-10.7-10.62-6.67-2.58-13.8,.26-19.18,4.84-2.51,2.14-4.49,6.27-4.64,9.6-.75,15.92-.8,31.88-1.07,47.82-.1,5.61,.14,11.23-.22,16.81-.79,12.32-1.73,24.63-2.86,36.92-.72,7.84-1.77,15.65-2.88,23.44-1.31,9.22-3.49,18.37-4.11,27.63-.68,10.31-.02,20.7,.08,31.06,0,.8,.2,1.59,.5,3.77,15.98,.94,31.99,1.88,48.08,2.82Zm130.82-.7c1.16-.77,2.44-1.14,2.59-1.78,1.06-4.45,3.8-3.97,6.78-2.39,11.26,5.96,23.12,8,35.74,6.03,7.31-1.14,14.78-1.54,21.22-5.81,9.69-6.43,19.65-12.52,29-19.41,5.35-3.94,11.21-8.39,14.24-14.01,5.32-9.87,8.59-20.84,12.83-31.31,4.99-12.32,4.17-23.58-3.85-34.79-7.61-10.62-13.83-22.22-20.79-33.32-6-9.57-11.96-19.19-18.37-28.48-2.65-3.84-6.31-7.04-9.77-10.27-3.7-3.46-7.2-7.77-11.66-9.64-10.53-4.42-21.68-7.34-32.37-11.4-7.45-2.83-14.86-3.68-21.92-2.61-.57,10.61-1.05,20.88-1.72,31.14-.16,2.44-1.11,4.82-1.36,7.26-.79,7.7-1.38,15.42-2.11,23.13-1.29,13.75-3.04,27.47-3.78,41.25-.48,8.94,.26,17.97,.91,26.93,.77,10.5,1.42,21.08,3.26,31.42,2.22,12.53,4.03,24.92,1.12,38.07Zm460.87-3.96c3.18-4.52,6-8.56,8.85-12.57,6.45-9.07,12.9-18.13,19.38-27.17,2.31-3.22,2.05-5.95-.2-9.38-4.55-6.92-9.13-13.54-15.77-18.84-6.14-4.9-11.1-11.26-17.01-16.51-2.58-2.29-6.07-4.29-9.41-4.86-7.81-1.32-11.27-6.5-13.36-13.14-1.54-4.89,2.22-7.62,4.96-10.75,3.02-3.45,6.16-6.86,8.71-10.65,4.75-7.07,8.77-14.66,13.74-21.56,4.58-6.37,10.02-12.12,15.32-18.44-3.31-2.54-6.5-5.11-9.85-7.46-.71-.5-2.39-.62-2.97-.13-7.49,6.2-15.25,12.14-22.16,18.94-8.01,7.89-14.99,16.81-22.92,24.79-4.79,4.82-10.79,8.41-15.78,13.06-6.79,6.32-14.46,7.21-21.47,.85-9.41-8.54-18.53-17.42-27.34-26.57-7.32-7.6-14.12-15.72-20.94-23.79-2.65-3.13-4.71-2.31-6.81,.19-2.32,2.75-4.37,5.73-6.71,8.47-3.98,4.67-4.1,8.43-.03,13.3,2.44,2.93,5.3,5.53,7.52,8.6,6.33,8.76,12.46,17.67,18.58,26.58,2.32,3.38,3.7,7.74,6.68,10.27,8.45,7.17,18.32,11.94,29.13,14.68,3.05,.77,10.11,8.67,9.3,11.19-2.02,6.24,1.32,14.59-7.09,18.47-1.15,.53-1.99,2.23-2.5,3.57-3.22,8.44-7.46,15.95-14.26,22.32-7.88,7.38-18,12.28-23.66,22.2-3.49,6.12-8.12,11.6-12.44,17.64,8.87-6.63,17.17-13.08,25.73-19.18,17.93-12.79,36-25.38,54-38.07,6.75-4.76,15.63-5.39,20.23,3.66,1.9,3.73,2.2,8.56,4.75,11.63,8.21,9.85,17.13,19.12,25.81,28.65Zm-206.66-19.63c-1.89,.23-3.84,.34-5.74,.72-3.66,.72-7.26,1.98-10.94,2.3-4.69,.41-9.48-.32-14.15,.19-10.38,1.14-20.97,1.19-30.63,6.34-5.06,2.7-10.25,.81-14.03-2.82-2.33-2.24-4.74-6.15-4.45-9.03,.82-8.1,2.65-16.16,4.84-24.02,1.19-4.26,.15-5.32-3.81-5.62-4.24-.32-6.75-3.98-6.06-8.99,.49-3.52,2.31-5.37,6.59-5.77,12.41-1.15,24.79-2.77,37.07-4.89,6.86-1.19,13.5-3.03,20.47-1.01,.98,.28,2.19-.22,3.67-.41-.83-5.65-1.24-11.11-2.55-16.33-.9-3.57-3.15-6.11-7.89-5.67-5.94,.55-12.02,.62-17.96,.04-12.45-1.21-24.5,1.48-36.67,3.04-5.3,.68-17.1-3.45-18.64-8.37-1.16-3.71-.72-8.94,1.11-12.36,4.39-8.18,7.73-16.64,9.66-25.62,1.23-5.7,2.61-11.66,2.15-17.36-.68-8.47-.66-10.5,9.02-11.79,6.21-.83,12.55-.58,18.79-1.16,16.13-1.51,32.22-1.61,48.96,.7,1.62-9.16,3.26-18.39,4.87-27.45-8.12,.9-15.61,2.24-23.13,2.45-12.37,.34-25.17,1.89-37.05-.59-16.82-3.51-33.52-3.19-50.35-3.33-.56,0-1.11,.36-1.3,.42,.89,3.66,2.16,6.92,2.37,10.24,.38,5.85,.33,11.75,.06,17.61-1.15,25.89,1.94,51.48,4.95,77.11,1.9,16.11,2.81,32.33,4.07,48.51,.5,6.43,.98,12.87,1.06,19.31,.16,12.85,.05,25.7,.05,38.76,6.09-.58,11.86-2.08,17.38-1.43,9.05,1.07,17.88,3.91,26.91,5.3,7.58,1.16,15.43,2.41,22.97,1.69,15.18-1.46,28.59-9,42.51-14.63,1.16-.47,2.52-2.91,2.24-4.04-1.85-7.25-4.14-14.39-6.43-22.04Zm68.01,34.1c4.71-6,9.11-11.61,13.5-17.21-.27-.23-.55-.47-.82-.7-6.27,4.14-12.55,8.28-19.58,12.92,2.75,2,4.43,3.21,6.9,5Z"/><path class="d" d="M621.22,512.62c-5.5,9.16-12.33,16-23.54,16.3-3.26,.09-6.63-.19-9.8-.92-9.74-2.24-18.88,1.47-28.3,2.4-9.09,.89-18.29,1.98-27.34,1.44-8.51-.51-13.21-10.84-9.04-17.47,3.34-5.31,3.46-10.71,2.41-15.69-2.11-10-5.71-19.69-8.69-29.51l-1.59,.08c-.93,4.4-2.31,8.76-2.69,13.21-1.01,11.89-4.27,23.17-8.36,34.28-.73,1.99-1.3,4.03-1.96,6.04-3.06,9.37-11.23,14.34-21.52,13.87-5.5-.25-10.98-1.52-16.66,.26-3.88,1.22-7.16,1.98-8.8,6.34-.73,1.94-3.18,3.23-4.85,4.82-.48-.31-.96-.62-1.43-.94-.54-4.85-1.07-9.69-1.71-15.44-4.98,.78-9.94,1.69-14.93,2.28-2.52,.29-5.14,.55-4.04-3.88,.67-2.7-.23-5.8-.49-8.72-.68-7.81,2.05-14.52,6.36-20.84,.94-1.37,1.65-3.3,1.55-4.91-.49-7.73-1.18-15.45-2.01-23.15-.84-7.84-2.19-15.62-2.84-23.47-1.06-13.01-1.74-26.06-2.53-38.44-8.55,1.14-17.39,2.32-26.66,3.55-1.59,8.03-1.66,16.61-.39,25.38,.97,6.69,.9,13.54,1.13,20.33,.72,21.04,1.46,42.09,1.98,63.14,.21,8.61-2.31,9.51-10.96,8.78-7.54-.63-15.27,1.2-22.93,1.84-3.46,.29-7.02,.84-10.38,.29-2.01-.33-3.71-2.55-6.47-4.6,0,1.57-.23,3.27,.07,4.88,.26,1.41,1.34,2.66,1.58,4.07,.13,.74-.55,1.97-1.23,2.39-.7,.43-2.36,.54-2.71,.1-2.01-2.55-3.83-5.27-5.58-8.01-1.34-2.1-1.58-4.97-5.33-4.76-6.85,.39-7.16-.08-7.66-7.17-.12-1.66-.11-3.32-.3-4.97-.04-.39-.65-.71-.21-.27-9.75,4.1-18.91,8.6-28.51,11.75-6.04,1.98-12.8,1.63-19.14,2.84-8.52,1.63-16.94,3.73-25.4,5.66-7.66,1.74-15.3,4.83-22.97,4.91-8.2,.09-16.5-2.36-24.63-4.22-16.64-3.8-28.71-15.44-42.12-24.86-5.45-3.83-11.77-6.42-17.74-9.49-6.79-3.48-9-7.82-6.23-14.98,3.48-9.01,7.73-17.72,11.6-26.58,1.39-3.2,2.63-6.46,3.94-9.7-.47-.22-.94-.43-1.41-.65-6.6,11.68-13.29,23.31-19.74,35.08-1.3,2.38-1.49,5.34-2.6,7.86-.51,1.16-2.01,1.9-3.06,2.82-.76-1.38-2.45-3.03-2.13-4.09,1.35-4.53,2.77-9.18,5.11-13.24,7.94-13.78,16.19-27.39,24.51-40.95,3.65-5.95,6.51-5.39,10.2,.5,5.53,8.81,11.15,17.7,17.87,25.58,3.16,3.71,8.81,6.79,13.61,7.24,6.16,.58,12.72-1.3,18.86-3,5.64-1.56,11.11-3.99,16.38-6.59,4.77-2.35,9.51-5.02,13.65-8.31,5.34-4.24,5.51-7.68,1.61-13.12-1.81-2.53-3.21-5.39-5.21-7.75-1.87-2.21-3.99-4.65-6.54-5.76-6.94-3.02-14.16-5-21.97-4.48-6.3,.42-12.67-.09-18.99,.12-13.04,.43-22.99-5.6-28.85-16.42-5.39-9.97-9.01-21.01-12.49-31.88-3.68-11.49,1.19-21.71,7.19-31.13,7.97-12.52,19.09-22.03,32.08-28.81,16.03-8.37,32.2-16.92,51.45-14.5,8.49,1.07,17.07,1.37,25.62,2.01,.5,.04,1.06,.2,1.49,.03,7.69-3.12,13.81,1.68,20.14,4.4,3.04,1.31,5.24,4.58,8.02,7.14,6.34-4.87,13.74-4.36,21.49-1.68,2.61,.9,5.57,1.08,8.37,1.12,10.5,.12,21.04,.61,31.48-.11,9.77-.68,19.41-3.16,29.19-4,6.27-.54,12.94-.57,18.96,1.01,9.6,2.52,18.8,6.57,28.89,10.24,4.1-8.68,11.87-14.58,21.72-12.2,6.08,1.47,14.01,4.68,14.83,15.08,10.07-1.42,19.98-2.56,29.78-4.32,4.93-.88,9.68-2.83,14.48-4.37,4.03-1.3,5.95,.11,7.62,3.95,2.79,6.41,5.75,12.83,9.48,18.72,6.4,10.12,13.53,19.76,20.18,29.72,11.15,16.7,20.85,34.17,26.99,53.41,1.59,4.97,2.51,10.16,4.16,15.11,1,2.99,2.8,5.71,4.65,9.35-.49-9.98-1.7-18.89-1.18-27.69,.73-12.28,2.7-24.49,4.24-36.71,.72-5.69,2.15-11.31,2.46-17.01,.71-13.28,7.76-21.28,20.03-25.02,13.45-4.09,26.94-8.06,40.51-11.71,3.27-.88,6.97-.63,10.42-.33,9.17,.8,18.34,1.72,27.46,3.01,3.83,.54,7.5,2.14,11.42,3.32,.72-6.17,1.47-13.87,9.2-13.98,6.64-.1,12.05-2.73,17.7-4.7,7.37-2.57,14.67-3.52,22.22-2.64,8.48,1,16.88,2.72,25.37,3.65,3.35,.36,6.85-.56,10.27-.93,11.61-1.26,23.19-2.9,34.83-3.66,6.73-.44,13.56,.43,20.32,.91,5.38,.38,8.44,5.33,8.02,12.08-.46,7.43-.85,14.88-.98,22.32-.17,9.83,0,19.66-.06,29.5-.04,7.05-5.58,10.92-12.47,10.12-13.27-1.53-26.61-2.74-39.95-3.27-8.22-.33-16.51,.83-25.45,1.36-.91,11.26-1.84,22.8-2.76,34.18,10.79-2.6,21.48-5.37,32.26-7.69,7.2-1.55,14.51-3.05,21.83-3.47,7.48-.44,10.86,3.8,10.85,12.13,0,9.11-1.96,18.23-3.14,27.33-.67,5.2-1.24,10.43-2.31,15.56-1.15,5.51-6.47,8.38-11.9,7.37-6.44-1.19-12.93-2.2-19.44-2.85-6.3-.62-12.66-.69-19.4-1.02,.38,5.21,.73,9.99,1.13,15.45,6.47-1.22,12.66-2.52,18.89-3.53,8.24-1.33,16.49-2.58,24.78-3.57,5.24-.63,10.55-.94,15.83-.98,6.88-.06,12.11,3.9,13.21,14.13,1.2,11.14,2.08,22.31,3.03,33.48,.9,10.6-8.29,20.06-20.02,19.87-11.9-.2-23.84-2.19-35.66-1.51-12.72,.73-25.31,3.66-37.96,5.63-6.3,.98-12.58,2.19-18.91,2.91-5.57,.63-11.22,.56-16.81,1.11-6.7,.66-11.13-2.71-14.96-7.75-1.62,.43-3.33,.88-6.23,1.65-.95-5.32-1.87-10.51-2.89-16.22-.97,.45-2.15,.82-3.15,1.48-8.48,5.58-17.59,8.53-27.92,7.88-8.79-.55-17.75,.57-26.4-.7-14.84-2.19-22.93-7.99-33.39-20.84Zm-439.48-104.39c1.3,1.4,2.37,3.19,3.94,4.15,9.03,5.52,18.98,5.46,29.09,4.66,4.06-.32,8.27-.57,12.24,.11,7.49,1.28,14.87,3.26,22.36,4.96-.08-.42-.03-.86-.2-.96-11.68-7.2-23.86-12.4-38.12-11.3-9.81,.76-19.84,3.46-29.4-1.52-1.16-3.53-2.29-7.06-3.5-10.58-1.37-4-3.94-7.95-3.99-11.95-.11-8.35,.95-16.74,1.8-25.08,.45-4.38,.97-8.88,2.4-13,1.17-3.38,.67-5.46-2.06-7.35-9.97,10.12-14.81,23.02-10.27,36.87,2.34,7.14,4.95,14.26,8.16,21.04,1.74,3.68,4.99,6.65,7.56,9.94Zm666.51-81.39c-4.19,.32-8.33,.27-12.34,.99-14.65,2.63-29.25,5.5-43.87,8.31-10.91,2.1-21.65,.91-32.33-1.61-6.33-1.49-12.09,.35-17.41,3.53-1.26,.75-2.46,2.9-2.4,4.35,.73,17,1.64,33.99,2.66,50.98,.3,4.92,1.49,9.8,1.58,14.71,.19,9.88,.72,19.86-.39,29.63-1.21,10.7-4.31,21.18-6.2,31.82-1.66,9.35-2.74,18.8-4.19,28.19-1.41,9.14-1.16,18.2,1.09,27.16,2.04,8.14,2.11,8.12,10.66,6.61,.33-.06,.67,0,1-.06,11.71-2.26,23.54-4.01,35.08-6.92,13.03-3.29,26.11-5.32,39.52-5.04,8.21,.17,16.41,.69,25.35,1.09-.8-9.07-1.56-17.64-2.38-26.87-6.51,.49-12.4,1.18-18.32,1.33-8.98,.22-17.98,.08-26.97,.05-11.42-.04-15.27-3.48-16.57-14.7-.08-.65-.34-1.28-.43-1.92-.86-6.52-1.76-13.03-2.51-19.56-.38-3.29,.8-5.41,4.61-5.49,11.64-.25,23.29-1.02,34.91-.82,8.58,.15,8.62,.69,9.45-7.73,.51-5.16,.85-10.34,1.31-16.07-7.45,.49-13.72,1.36-19.97,1.19-9.39-.24-18.76-1.2-28.14-1.87-7.91-.56-8.96-2.1-8.23-9.97,1.18-12.79,2.16-25.6,2.95-38.42,.24-3.8,1.65-5.36,5.43-5.3,5.99,.09,11.98-.11,17.98-.12,11.89-.03,23.79-.14,35.68,.05,5.18,.08,10.35,.84,16,1.33-.9-16.53-1.74-32.18-2.64-48.82Zm-140.64,155.17c-13.89,4.62-27.85,4.95-41.9,5.2-13.76,.25-25.29-12.26-28.84-23.18-3.44-10.6-2.85-21.52-3.03-32.43-.26-15.73,7.36-27.62,18.14-37.87,7.16-6.81,15.99-9.6,25.92-10.55,10.8-1.03,19.11,2.39,24.02,12.05,1.6,3.14,3,6.38,4.49,9.57,1.03-8.17,1.89-16.48,.78-24.52-.97-7-4.16-13.69-6.37-20.52-1.54-4.78-2.55-9.82,.28-14.2,2.17-3.37,6.17-2.85,9.84-2.3,.83,.13,2.54-.88,2.62-1.51,.13-1.1-.34-2.89-1.17-3.39-2.77-1.67-5.69-3.56-8.78-4.15-7.25-1.38-14.62-2.48-21.98-2.9-6.75-.38-13.78-.75-20.28,.7-12.1,2.69-23.98,6.48-35.82,10.22-8.89,2.81-15.16,8.25-16.09,18.39-.48,5.2-1.65,10.34-2.41,15.52-1.54,10.55-3.72,21.08-4.3,31.69-.58,10.54,.05,21.2,.95,31.74,.61,7.11,2,14.29,4.14,21.1,3.79,12.04,9.21,23.6,12.5,35.76,4.29,15.88,14.61,25.84,29.52,29.65,10.68,2.73,22.33,1.62,33.54,2.38,9.83,.67,17.95-3.42,25.47-9.04,1-.75,1.64-2.73,1.54-4.07-.7-9.54-1.64-19.06-2.49-28.59-.13-1.44-.17-2.89-.28-4.76Zm-352.64,42.74c11.76-2.24,23.64-3.5,35.67-1.37,2.45,.43,4.36-.37,4.23-3.39-.34-7.89-.4-15.8-1.12-23.65-1.42-15.38-3.21-30.73-4.87-46.08-.94-8.69-2.26-17.35-2.81-26.06-.49-7.68-.35-15.42-.07-23.11,.14-3.92,7.36-11.65,10.76-11.53,11.02,.36,20.44-3.94,29.65-9.25,3.01-1.73,4.64-3.57,4.56-7.35-.27-12.79,1.59-25.28,6.11-37.34,.4-1.06-.49-3.46-1.48-4.05-6.36-3.75-12.93-7.14-19.39-10.72-5.18-2.86-10.61-4.31-16.58-3.79-5.43,.48-10.88,.92-16.33,.99-12.37,.14-24.74,.05-37.11,.05-4.11,0-8.23,0-12.61,0,.34,2.56,.75,4.47,.83,6.4,.23,5.53-.19,11.15,.57,16.6,1.52,10.85,4.46,21.54,5.34,32.42,1.37,16.99,2.75,34.1,.76,51.12-.85,7.27,.9,13.41,3.85,19.78,3.87,8.37,7.23,17.01,6.58,26.55-.25,3.69-1.23,7.42-.91,11.05,1.25,14.25,2.88,28.47,4.37,42.74Zm185.87-16.34c1.35,0,2.39,.2,3.32-.03,10.35-2.52,20.66-5.27,31.05-7.58,3.65-.81,4.27-3.06,3.59-5.78-2.54-10.14-5.35-20.2-8.06-30.3-2.96-11.06-6.16-22.06-8.8-33.19-2.76-11.62-4.24-23.6-7.62-35.02-4.12-13.92-9.65-27.43-14.56-41.12-4.3-11.99-8.6-23.98-12.94-36.08-1.53,.52-3.34,1.25-5.22,1.77-12.87,3.53-25.89,6.02-39.3,6.11-1.23,0-3.29,.94-3.56,1.85-1.98,6.84-5.57,13.23-1.54,21.01,5.29,10.21,5.48,20.84-1.7,30.76-1.51,2.08-3.49,4.3-3.83,6.66-1.35,9.43-2.35,18.92-3.1,28.42-1.16,14.69-1.57,29.45-3.09,44.09-1.58,15.29-1.93,30.92-9.53,45.02-1.08,2.01-1.18,5.16,2.23,5.29,4.77,.19,9.6-.21,14.35-.77,.96-.11,2.33-2.03,2.43-3.21,1.18-12.77,1.77-25.67,6.51-37.78,2.82-7.21,5.91-14.45,12.24-19.45,2.99-2.36,6.46-4.04,10.31-1.59,1.8,1.14,3.47,2.49,5.52,3.97,.54-3,1.01-5.23,1.33-7.49,.52-3.61,3.14-5.11,6.19-5.4,4.72-.45,6.24,3.54,7.18,6.9,2.04,7.37,2.8,15.14,5.26,22.35,4.48,13.15,10.76,25.73,11.33,40.6ZM183.97,348.45c-.56,.83-1.19,1.34-1.25,1.91-1.1,9.79-2.84,19.58-2.93,29.38-.05,6.02,2.37,12.08,3.81,18.1,1.68,7.01,2.53,7.43,9.73,7.64,12.89,.37,25.85-3.41,38.68,1.84,9.59,3.92,20.17,6.35,25.67,16.01,3.33,5.86,6.74,11.27,11.25,16.4,5.67,6.45,5.01,16.59,.18,23.45-1.42,2.01-2.53,4.25-3.71,6.42-4.14,7.62-11.17,11.37-19.19,12.3-9.52,1.11-19.2,.86-28.81,1.18-1.17,.04-2.35-.11-3.49,.07-14.83,2.28-25.35-5.74-34.62-15.4-4.01-4.18-6.12-10.18-9.44-15.95-1.81,3.86-3.41,7.22-4.96,10.6-4.14,9.06-8.18,18.16-12.39,27.18-2.24,4.81,.49,5.97,4.38,6.95,7.3,1.83,15.06,2.85,21.67,6.14,15.9,7.91,32.44,11.52,50.06,10.74,1.43-.06,2.92-.32,4.26-.83,19.15-7.27,38.29-14.58,57.41-21.94,3.81-1.47,7.65-2.93,11.29-4.77,8.33-4.2,9.19-10.09,5.4-18.73-7.91-18.01-16.13-35.89-24.55-53.67-1.46-3.08-4.05-6.74-6.97-7.8-9.03-3.29-18.43-5.59-27.76-7.95-2.58-.65-5.71,.5-8.13-.4-6.4-2.39-12.45-5.67-18.8-8.2-9.56-3.82-12.74-16.76-5.94-26.19,8.09-11.24,19.88-15.59,32.87-17.43,6.29-.89,12.68-1.08,19.21-1.6,0-1.96-.17-3.64,.03-5.28,.57-4.49-1.44-6.13-5.72-5.55-2.61,.36-5.22,.74-7.84,.99-5.1,.5-10.75-.33-15.19,1.62-10.04,4.44-19.7,9.88-29.09,15.61-5.66,3.45-10.85,7.58-17.65,3.86-2.7-1.48-4.72-4.19-7.47-6.72Zm531.1,39.5l-.23,.09c-.77,6.98-1.3,14.01-2.46,20.93-.36,2.18-1.95,5-3.77,5.9-3.14,1.55-5.05-1.07-6.31-3.85-2.24-4.92-3.9-10.28-7.03-14.55-2.14-2.92-6.21-5.74-9.7-6.14-14.13-1.63-25.79,3.03-34.09,15.3-4.86,7.19-8.55,14.64-8.65,23.42-.06,5.44,.94,10.93,.55,16.33-.54,7.47-.23,14.78,3.22,21.42,3.71,7.16,7.82,14.5,17.43,14.75,7.19,.19,14.45,.49,21.57-.28,6.78-.73,13.42-2.73,20.08-4.35,.87-.21,1.95-1.38,2.13-2.27,1.79-8.49,3.71-16.98,4.98-25.55,1.15-7.82,1.95-15.74,2.18-23.63,.35-12.49,.09-25.01,.09-37.51Zm-453.75-34.11c-.16-.61-.31-1.23-.47-1.84-8.81,2.27-17.84,3.94-26.35,7.03-5.16,1.87-9.26,6.01-11.26,11.79-1.21,3.5-1.01,5.45,2.86,6.67,6.83,2.16,13.25,4.15,20.94,3.31,10.41-1.13,21.18-.4,31.64,.85,10.76,1.29,20.2,5.62,26.73,15.41,3.06,4.58,8.26,7.74,12.49,11.54,.4-.27,.8-.54,1.21-.82-4.93-22.32-9.86-44.64-14.92-67.5-1.75,6.18-3.06,11.92-5.09,17.39-.66,1.79-3.03,3.23-4.95,4.12-.82,.38-3.47-.88-3.61-1.69-1.51-8.31-7.76-6.88-13.47-7.08-4.98-.18-9.32-.04-12.24,5.15-1.74,3.08-4.8,5.42-7.23,8.05q-3.6-3.05,3.71-12.38Zm11.63-10.34c6.22,1.25,12.13,2.51,18.08,3.55,.8,.14,2.5-.7,2.59-1.28,1.08-6.81,1.92-13.66,3.01-21.87-8.87,3-16.14,5.4-23.34,7.99-.76,.27-1.62,1.7-1.56,2.52,.21,3.09,.79,6.15,1.21,9.09Zm234.26,123.43l-1.35-.13c-6.57,10.82-4.62,22.87-4.43,34.68,1.93-11.51,3.85-23.03,5.78-34.54Zm-160.39,57.79c.79-.07,1.59-.15,2.38-.22-.82-10.21-1.65-20.42-2.47-30.63-.46,.04-.93,.07-1.39,.11,.49,10.25,.99,20.49,1.48,30.74Zm-108.33-56.71c7.2,.94,13.79-2.7,14.83-7.98-4.84,2.6-9.94,5.35-14.83,7.98Z"/><path class="d" d="M726.05,779.32c11.87-2.83,23.42-2.58,34.54,2.97,1.68,.84,3.88,.59,5.71,1.21,1.77,.6,4.32,1.31,4.81,2.62,.55,1.45-1.2,3.6-1.34,5.49-.24,3.28-.42,6.65,.08,9.87,1.35,8.74,3.38,17.39,4.48,26.15,.38,3.06-.7,6.57-2,9.47-.65,1.45-3.24,2.64-5.07,2.84-3.94,.42-7.96,.13-11.84,.13-3.24,7.6-3.76,8.11-10.94,5.78-12.3-4.01-24.47-2.38-36.84-.4-16.14,2.57-32.37,4.59-48.6,6.54-4.59,.55-9.21,.16-12.31-4.5-.52-.78-3.13-.48-4.69-.22-4.92,.84-8.62-1.87-6.98-6.16,3.58-9.39,.11-18.1-1.33-27.02-1.03-6.42-2.53-12.76-3.73-18.69-4.16,7.27-8.93,15.02-13.13,23.06-8.48,16.25-20.74,29.11-35.85,38.99-9.26,6.05-19.23,11.38-29.54,15.34-8.72,3.35-18.36,4.37-27.63,6.25-11.06,2.24-22.08,.71-33.02-1.02-7.21-1.14-13.69-4.3-18.95-9.4-18.64-18.07-34.78-38.19-47.53-60.82-4.48-7.96-7.05-16.77-7.62-26.22-1-16.41,2.01-32.28,4.97-48.22,1.67-9,2.35-18.35,5.36-26.88,3.33-9.45,8.1-18.6,13.49-27.08,8.35-13.13,17.76-25.59,26.77-38.3,.62-.87,1.49-1.73,2.44-2.16,15.3-6.83,30.61-13.62,45.95-20.36,13.11-5.76,26.5-4.46,40.29-2.67,11.45,1.49,19.27,8.27,27.31,14.9,12.36,10.19,24.36,20.82,36.14,31.67,8.54,7.87,14.79,16.81,15.29,29.49,.57,14.6,3.33,29.1,4.48,43.7,.55,7.04-.06,14.23-.79,21.29-.95,9.27-2.53,18.47-4.01,28.86,5.23-2.19,11.12-3.73,15.97-6.88,13.11-8.51,25.17-18.34,36.79-28.91,7.63-6.95,12.05-15.16,16.84-23.74,5.32-9.55,6.91-19.95,7.55-30.31,.59-9.6-3.71-18.6-8.47-26.86-2.84-4.93-7.74-5.33-12.91-2.1-5.29,3.31-9.66,7.44-11.63,13.62-2.24,7.06-6.15,8.84-14.75,6.5-1.59-.43-3.14-2.21-4.03-3.76-3.69-6.41-7.14-12.78-13.33-17.46-9.58-7.24-9.33-19.73,.24-26.95,9.29-7.01,19.19-13.28,28.07-20.76,6.94-5.84,14.01-10.96,22.93-12.79,5.87-1.2,10.97-3.62,16.14-6.59,5.65-3.24,12.11-2.28,17.86,.25,9.17,4.04,18.35,8.19,27.02,13.19,8,4.61,13.41,12.08,17.78,20.16,3.42,6.32,6.7,12.72,9.86,18.72,1.64-6.11,3.72-12.75,5.17-19.52,2.12-9.92,8.41-16.45,16.18-22.3,15.9-11.97,34.91-15.87,53.46-20.62,10.14-2.6,20.83-3.84,31.32-4.11,17.19-.43,33.3,4.06,46.87,15.2,4.83,3.97,10.06,8.16,13.14,13.41,5.9,10.07,9.88,21.2,10.92,32.99,1.01,11.39,1.48,22.84,2.02,34.27,.53,11.2-2.78,21.29-8.42,30.98-8.82,15.15-21.84,26.58-33.66,39.04-4.53,4.77-10.59,8.2-16.31,11.66-1.6,.97-4.51-.51-6.73-.22-6.12,.81-8.48,4.56-8.53,13.47,6.61,0,13.23-.11,19.85,.03,11.44,.24,22.89,.55,34.33,1.01,4.86,.19,7.87,4.78,7.44,9.52-.45,5.02,0,10.11-.1,15.16-.11,5.32-.56,10.64-.57,15.96,0,3.43-.02,7.01,.91,10.25,1.57,5.45-1.49,10.81-7.14,10.65-18.21-.5-36.42-1.58-54.63-1.82-14-.19-28.02,.38-42.01,.93-11.7,.46-24.46-4.08-29.69-15.24-2.79-5.96-6.17-11.69-8.38-17.85-2.72-7.58-1.17-15.23,3.53-21.53,10.47-14.02,21.99-27.28,32.04-41.58,4.96-7.07,7.6-15.77,11.28-23.73l-1.25-1.23c-1.56,.5-3.41,.62-4.63,1.56-10.03,7.71-20.69,9-33.04,5.9-12.32-3.09-20.97-9.81-27.39-20.23-.51-.83-1.21-1.54-1.8-2.29-5.98,11.04-11.25,22.39-17.99,32.78-8.56,13.19-18.19,25.72-31.66,34.55-5.11,3.35-10.33,6.54-15.5,9.8,.2,.42,.41,.85,.61,1.27Zm-259.69-124.19c-.62-.12-1.23-.23-1.85-.35-.66,.97-1.31,1.95-2,2.91-7.14,10.02-14.62,19.82-21.32,30.13-5.91,9.11-10.47,18.93-11.78,30.02-1.06,8.94-2.78,17.8-4.06,26.71-1.81,12.61-4.54,25.06-2.97,38.07,1.86,15.35,9.07,27.82,18.42,39.55,8.36,10.49,20.45,16,30.97,23.58,10.42,7.5,21.59,11.65,34.83,6.78,9.45-3.48,19.81-4.73,28.94-8.81,7.2-3.22,12.93-9.56,19.68-13.94,15.99-10.36,23.42-26.89,31.22-43.03,3.27-6.75,4.52-14.46,7.59-21.32,4.34-9.7,5.82-19.09,2.28-29.51-2.08-6.13-3.19-12.98-2.94-19.43,.36-9.22-1.11-18.41-6.1-25.26-7.43-10.2-17.26-18.67-26.13-27.82-2.5-2.57-4.95-5.31-7.86-7.34-7.58-5.28-16.43-4.41-24.35-2.3-14.41,3.84-28.36,9.37-42.61,13.86-3.25,1.03-7.13,1.46-10.37,.7-2.37-.56-4.54-3.27-6.12-5.5-1.6-2.25-2.36-5.1-3.49-7.68Zm414.79,103.36c-7.26,6.15-14.62,12.74-22.35,18.85-8.61,6.81-17.67,13.05-26.24,19.9-1.68,1.34-3.35,4.78-2.77,6.48,1.84,5.36,4.72,10.36,7.27,15.46,.26,.52,.99,1.06,1.55,1.12,6.99,.74,13.99,1.85,21,1.95,11.79,.17,23.62-.88,35.39-.37,14.46,.62,28.88,2.32,43.32,3.53,2.61,.22,4.61-.29,4.59-3.63-.07-10.49-.06-20.98,0-31.46,.02-2.73-1.22-3.43-3.74-3.13-3.49,.42-7.02,.89-10.52,.83-11.76-.2-23.53-.44-35.28-1.01-10.43-.5-13.66-4.01-13.43-14.31,.11-4.82,.8-9.62,1.2-14.22Zm-193.91,20.2c-13.08,5.27-20.52,15.14-28.12,25.1-8.5,11.14-5.74,24.01-7.77,36.78,6.6,.3,12.37,.92,18.1,.71,6.23-.23,12.43-1.19,18.64-1.9,4.4-.5,8.79-1.07,13.17-1.69,9.73-1.39,19.44-2.98,29.19-4.21,6-.76,12.05-1.03,16.95-1.42,2.75-13.55,5.39-26.59,8.07-39.8,.26,.03-.53-.19-1.31-.16-15.87,.65-31.74,1.26-47.6,2.07-2.05,.1-4.02,1.33-6.08,1.81-2.65,.62-5.36,1.01-8.05,1.5l-.11-.21c-2.18,.42-4.37,.84-6.55,1.26-.12-2.08-.51-4.18-.31-6.22,.43-4.5,1.16-8.96,1.79-13.61Zm223.06-111.84c.61-3.54,1.14-6.12,1.5-8.72,1.02-7.23-4.1-20.14-11.39-20.87-8.51-.85-17.17-1.08-25.7-.54-11.37,.72-21.48,5.86-31.12,11.48-8.56,4.99-16.71,10.72-17.37,22.21-.33,5.75-1.38,11.46-1.61,17.21-.2,5.03,2.4,8.74,7.05,10.77,1.11,.49,3.32,.96,3.5,.61,.71-1.3,1.28-3.03,1.03-4.43-2.34-12.83,2.77-22.6,12.93-29.66,7.94-5.51,16.83-8.45,26.91-8.76,10.64-.32,20.12,1.57,28.72,7.85,1.53,1.12,3.4,1.77,5.54,2.85Zm-184.91,39.67l.41,.59c1.45-4.77,2.71-9.6,4.38-14.29,3.82-10.77,8.25-21.35,11.58-32.26,1.41-4.6,2.36-10.59,.56-14.63-3.21-7.19-8.38-13.61-13.3-19.9-2.53-3.23-5.88-4.56-10.71-2.22-10.1,4.89-20.68,8.77-31.08,13.04-6.41,2.63-12.84,5.2-19.55,7.92,1.18,.64,2.15,.96,2.86,1.59,1.06,.93,2.88,2.29,2.7,3.08-.47,2.05-1.84,3.24-4.43,1.79-2.3-1.28-5-1.81-7.5-2.67q-.54,2.82,10.02,8.84c2.53-2.54,5.12-5.12,7.69-7.71,5.79-5.85,19.26-9.72,27.5-5.31,11.61,6.22,18.83,15.88,19.79,28.78,.82,11.03-.52,22.23-.9,33.35Zm-85.95,86.63c3.09,16.33,5.82,32.09,1.2,47.93,5.25,1.06,5.76-2.25,6.16-5.15,.36-2.61,.14-5.32,.08-7.98-.24-11.27,3.01-21.36,10.14-30.14,1.32-1.63,2.65-3.25,3.8-4.66h-21.39Zm108.49-134.15c-6.51,18.54-13.02,37.09-19.54,55.63,.41,.19,.81,.38,1.22,.57,1.1-1.4,2.29-2.73,3.28-4.2,4.84-7.23,10.04-14.26,14.33-21.81,5.52-9.72,4.33-20.06,.72-30.2Zm13.21,139.41c-5.7,10.88-7.31,22.11-6.31,34.14h12.02c-1.92-11.5-3.82-22.82-5.71-34.14Zm156.02-111.53c-2.06,5.67-4.15,11.41-6.58,18.07,9.19-3.77,10.81-9.31,6.58-18.07Z"/><path class="d" d="M1179.47,32.82c-1.48-.69-3.24-1.18-4.58-2.21-2.44-1.88-3.3-4.84-.74-6.68,1.62-1.16,5.21-1.33,6.9-.29,4.7,2.89,4.03,8.45,4.33,12.98,1.04,15.38,1.43,30.8,2.16,46.19,.59,12.23,.91,24.49,2.07,36.67,2.24,23.41-1.07,46.32-4.9,69.29-2.85,17.1-5.17,34.3-4.29,51.77,.21,4.2,1.09,7.48,5.48,8.55,5.83,1.42,11.73,2.53,17.6,3.8,7.02,1.51,14,4.03,21.06,4.31,9.05,.36,18.19-.93,27.26-1.79,8.5-.81,16.97-2,25.46-3,9.17-1.08,15.85-6.64,22.43-12.39,13.86-12.11,21.42-28.02,27.15-45.03,.68-2.01,1.08-4.24,2.23-5.95,4.84-7.22,4.25-15.68,5.83-23.66,2.39-12.07-.14-23.6-3.18-35.1-2.29-8.65-5.15-17.16-7.2-25.86-1.39-5.9-1.74-12.04-2.71-18.05-.42-2.59-.75-5.34-1.91-7.62-11.88-23.38-27.68-42.92-51.44-55.62-14.36-7.67-29.12-12.46-45.32-13.07-1.62-.06-3.27-.47-4.82-.97-12.39-3.98-23.79,.76-35.38,3.9-1.58,.43-3.18,1.11-4.77,1.11-.97,0-2.47-.88-2.76-1.71-.25-.72,.7-2.59,1.43-2.79,10.39-2.83,20.83-5.48,31.27-8.11,.78-.2,1.68-.08,2.49,.06,8.85,1.6,17.64,3.7,26.55,4.76,15.5,1.84,28.67,9.14,41.6,16.93,17.98,10.83,31.22,26.27,42.1,44.49,0-3.55,.06-7.1-.01-10.65-.13-6.23,1.54-11.49,6.76-15.55,1.67-1.3,2.44-4,3.2-6.21,1.51-4.36,3.55-7.62,8.47-9.22,11.49-3.75,22.43-8.9,34.81-10.03,8.52-.78,16.71-.73,24.97,1.36,13.91,3.53,27.81,2.5,41.67-.47,6.56-1.41,13.07-3.02,19.64-4.35,1.12-.23,3.05,.17,3.51,.93,.65,1.08,.63,2.87,.29,4.2-1.07,4.16-2.43,8.25-3.67,12.37,.79,.3,1.59,.6,2.38,.9,2.69-6.15,5.7-12.18,7.96-18.48,2.05-5.72,9.91-10.21,15.37-7.82,10.55,4.62,21.74,4.88,32.9,4.76,7.32-.08,12.48,3.87,12.62,11.58,.18,9.74,5.29,18.12,10.29,26.3,4.01,6.56,8.18,13.04,11.76,19.82,3.64,6.88,6.65,14.1,9.85,21,.06-.87,.2-2.12,.22-3.37,.35-17.78,.64-35.56,1.05-53.34,.06-2.45,.9-4.9,.87-7.34-.02-1.67-1.08-3.3-1.38-5-.37-2.04-1.35-4.92-.41-6.03,1.27-1.5,4.96-2.96,6.15-2.18,6.56,4.27,13.96,2.24,20.85,3.25,9.29,1.37,18.85,1.06,28.3,1.22,7.99,.14,8.66-.83,6.94-8.41-.62-2.72,2.27-5.85,5.04-5.52,10.91,1.34,21.87,2.37,32.73,4.05,13.77,2.13,27.53,4.43,41.17,7.27,17.12,3.57,34.2,3.03,51.54,1.99,14.83-.89,29.8,.62,44.71,1.05,1.6,.05,3.21-.05,4.81-.11,11.25-.45,22.73-1.53,31.28,8.1,5.42,6.1,8.29,13.02,5.53,21.37-.5,1.53-.54,3.27-.5,4.9,.29,13.28,.57,26.56,1,39.84,.22,6.73-3.29,11.27-8.19,15.16-2.09,1.66-4.14,3.38-6.24,5.04-6.54,5.14-12.16,5.49-19.62,1.32-.99-.56-2.08-.96-3.16-1.33-11.5-3.95-11.98-3.6-10.83,8.14,1.3,13.24,.31,26.28-1.97,39.4-1.34,7.67-.6,15.69-1.12,23.53-.25,3.74-1.24,7.43-1.88,11.15-1.47,8.52,.97,16.44,3.06,24.6,2.73,10.65,.03,20.39-7.66,28.66-4.8,5.17-10.74,8.27-16.82,11.57-14.64,7.94-29.71,6.58-45.11,3.53-11.87-2.35-19.82-10.28-24.77-20.09-4.11-8.15-4.77-18.1,.03-26.77,4.95-8.94,6.14-18.74,7.39-28.41,1.49-11.43,1.59-23.04,2.19-34.58,.4-7.7-.58-15.2-4.51-22-5.84-10.11-2.13-20.03,.39-29.99,.2-.79,.43-1.58,1.01-3.68-23.11,6.5-45.26,.2-68.02-2.2-.52,8.99,.86,17.23,6.67,23.48,7.78,8.39,11.14,18.51,13.99,29.07,1.33,4.91,2.66,9.83,4.09,14.71,2.34,7.95,3.07,15.84,2.31,24.28-1.03,11.36-.62,22.9-.18,34.34,.29,7.59-10.5,19.87-17.18,21.9-8.68,2.64-16.85,1.74-25.52-.29-14.72-3.44-29.46-7.78-44.88-6.32-9.54,.9-15.67-4.18-21.23-10.89-2.31-2.79-5.16-5.13-8.12-8.02-1.67,8.76-3.4,16.24-4.42,23.81-.76,5.59-4.91,9.05-8.48,11.55-9.65,6.74-20.34,11.03-32.78,7.67-6.8-1.83-13.89-2.54-20.8-3.96-7.32-1.5-12.42-6.75-17.09-11.85-2.11-2.31-1.72-6.9-2.66-11.36-16.52,3.05-33.47,6.5-50.54,9.18-8.46,1.33-17.13,1.32-25.71,1.81-7.11,.41-14.23,.64-21.34,1.03-8.42,.46-14.63-2.86-18.43-10.64-1.45,1.57-2.84,3.08-4.76,5.16-.96-1.53-2.71-3.38-2.37-3.9,4.06-6.29,1.97-12.53,.72-19.03-1.59-8.22-2.34-16.61-4.23-25.25-2.4,5.96-5,11.84-7.16,17.89-6.78,18.98-18.91,33.72-35.28,45.17-6.19,4.33-13.33,4.5-20.53,5.2-10.1,.98-20.16,2.6-30.14,4.49-10.86,2.06-21.22,.24-31.69-2.4-5.52-1.39-11.31-1.71-16.93-2.75-2.7-.5-5.31-1.5-7.95-2.3-2.48-.75-4.95-1.52-8.14-2.51-1.23-10.77-3.22-22.05-1.28-33.68,1.77-10.68,2.75-21.48,4.24-32.21,1.4-10.06,3.03-20.08,4.55-30.12,.2-1.31,.42-2.64,.4-3.95-.3-18.44-.38-36.9-1.06-55.33-.65-17.63-1.88-35.24-2.96-52.85-.23-3.77-.91-7.5-1.38-11.26Zm342.91-12.23h-31.43c-.24,.92-.6,2-.8,3.11-1.16,6.21-3.63,12.41,1.24,18.36,1.09,1.33,.92,3.77,1.13,5.72,.26,2.47-.18,5.11,.54,7.41,3.43,10.93,2.62,21.24-1.22,32.19-2.59,7.37-1.22,16.05-2.4,24.02-1.98,13.43-4.74,26.74-6.85,40.15-1.16,7.34-1.65,14.79-2.45,22.23,2.73-.88,4.44-1.75,6.19-1.81,.5-.02,1.57,2.35,1.51,3.58-.13,3-1.03,5.98-1.13,8.98-.2,5.92-.06,11.85-.06,17.56h8.54c-.48-2.66-.97-4.88-1.26-7.12-1.43-11.05-2.5-22.17-4.31-33.16-1.7-10.32,.29-21.12,5-29.89,1.65-3.07,3.65-4.28,6.32-5.35,4.61-1.85,9.15-4.1,13.94-5.21,2.78-.64,7.15-.48,8.81,1.24,4.52,4.68,8.31,10.18,11.74,15.75,3.13,5.09,5.17,10.85,8.12,16.06,4.52,7.98,9.44,15.74,14.16,23.6,3.95,6.59,7.87,13.2,11.79,19.81,1.14,1.92,2.24,3.85,3.3,5.69,2.06-.86,3.48-1.89,4.98-2.01,13.5-1.12,27.01-2.19,40.53-3,3.43-.21,4.5-1.38,4.67-4.78,.31-6.22,1.27-12.4,1.87-18.61,.35-3.59,.84-7.21,.67-10.78-.2-4.08-.89-8.16-1.68-12.18-1.33-6.82-1.06-13.85-5.26-20.21-2.68-4.05-4.09-9.45-4.51-14.38-.92-10.72-.91-21.53-1.16-32.31-.14-6.01-1.11-12.28,.23-17.97,2.04-8.65,2.89-17.21,2.84-26.01-.02-3.39,.98-6.81,1.67-10.18,.99-4.81,.13-5.88-4.8-6.03-8.94-.28-17.87-.61-26.81-1-4.03-.18-8.05-.55-12.21-.84-.13,1.11-.29,1.75-.28,2.39,.31,20.6,.21,41.23,1.13,61.8,.52,11.59,2.5,23.15,4.32,34.64,.52,3.27,.2,5.45-2.57,7.04-3.05,1.76-6.15,3.65-9.26-.07-.7-.83-1.89-1.24-2.77-1.94-4.2-3.34-9.12-6.13-12.38-10.23-4.65-5.84-7.9-12.78-12.08-19.03-5.52-8.25-10.56-16.46-11.31-26.86-.67-9.29-2.55-18.5-3.74-27.76-.96-7.44-1.67-14.92-2.52-22.62Zm114.77-9.8c-1.42,8.62-2.75,16.46-3.96,24.31-.38,2.44-.79,4.96-.57,7.39,1.21,13.63,2.59,27.25,3.95,40.87,.28,2.82,.88,4.6,4.79,4.32,4.48-.32,9.08,.89,13.62,1.45,8.79,1.08,17.59,3.14,26.36,2.99,10.09-.17,20.19-2.05,30.21-3.63,7.61-1.2,13.6,1.06,13.87,6.55,.39,8.18,.14,16.39,.06,24.58-.02,1.76-.99,3.65-.59,5.24,3,12.04,6.87,23.9,9.15,36.06,1.4,7.47,.65,15.38,.53,23.09-.1,6.45-.77,12.89-.93,19.34-.03,1.13,1.16,3.22,1.86,3.25,1.36,.06,3.23-.67,4.04-1.72,.91-1.2,1.3-3.13,1.21-4.71-.49-8.65,2.8-16.42,5.01-24.51,2.23-8.2,3.24-16.74,4.72-25.14,2.65-15.04,7.02-29.76,6.64-45.35-.22-8.84,1.92-17.7,6.1-25.74,1-1.91,2.73-4.18,4.6-4.77,9.1-2.87,18.17-6.31,28.02-5.23,2.62,.29,3.84-.66,4.39-3.37,.92-4.49,2.45-8.86,3.52-13.32,.7-2.92-.09-4.61-3.71-4.74-5.09-.18-10.21-.74-15.22-1.63-10.81-1.92-21.5-5.39-32.36-6-18.81-1.06-36.59-5.95-54.25-11.66-13.66-4.42-27-9.85-40.7-14.13-6.78-2.12-14.05-2.67-20.33-3.79Zm-173.32,62.32c-2.22-.4-4.31-.5-6.21-1.15-10.38-3.57-20.46-7.63-31.95-7.12-11.54,.51-22.87,1.03-33.9,5.02-4.42,1.6-6.45,3.57-6.31,8.43,.29,10.48,.09,20.98,.09,31.48,0,2.77,0,5.54,0,8.68,11.31,0,21.94-.04,32.57,.02,4.86,.02,9.13-1.31,12.28-5.14,3.27-3.98,7.36-4.2,12.09-3.56,6.01,.81,7.87,4.89,10.31,9.7,4.49,8.82,4.49,16.79-1.26,24.79-2.78,3.88-5.4,8.38-10.67,8.74-12.33,.83-24.69,1.25-37.04,1.65-6.67,.21-13.36,.04-19.85,.04,.96,7.67,2.31,14.13,2.43,20.61,.12,6.6-.96,13.23-1.51,19.69,7.73-1.89,15.13-3.99,22.65-5.46,11.89-2.33,23.88-4.1,35.78-6.36,8.98-1.7,17.9-3.71,26.78-5.85,1.12-.27,2.67-2.18,2.62-3.28-.14-3.58-1.16-7.12-1.41-10.7-.53-7.41-.87-14.83-1.12-22.25-.17-5.05,.56-10.19-.18-15.13-1.72-11.49-4.44-22.84-6.03-34.35-.84-6.11-.15-12.42-.15-18.47Zm-86.62,76.13c.74,.06,1.55,.21,2.35,.18,9.76-.31,19.51-.74,29.27-.93,7.97-.16,15.99,.41,23.91-.24,3.99-.32,8.92-1.56,11.49-4.25,6.16-6.44,7.59-14.18,2.5-22.51-2.97-4.86-6.11-5.77-11.17-2.94-3.51,1.96-7.43,4.1-11.28,4.34-13.07,.83-26.2,.93-39.3,1.13-3.49,.05-5.2-1.75-5.14-5.66,.2-14,.21-28,0-41.99-.07-4.22,1.4-7.36,5.06-8.84,6.33-2.56,12.75-5.28,19.39-6.63,11.45-2.31,23.17-2.85,34.7-.44,6.59,1.38,12.98,3.75,20.39,5.95-5.96-15.07-2.18-30.3-3.87-45.33-9.06,1.48-17.73,3.44-26.5,4.16-8.51,.69-17.14,.48-25.68-.06-6.33-.4-12.58-2.75-18.88-2.81-5.97-.05-12.16,1.08-17.88,2.89-7.93,2.51-15.49,6.14-23.22,9.29,.08,.62,.16,1.25,.24,1.87,1.92,.27,3.95,.22,5.72,.89,2.51,.95,6.29,1.89,6.98,3.77,3.63,9.86,6.2,20,6.44,30.72,.15,6.52,1.26,13.17,3.02,19.46,5.27,18.84,9.21,37.91,11.48,57.97Zm96.89,32.97c-5.04,.88-9.08,1.46-13.07,2.32-9.89,2.12-19.76,4.35-29.63,6.55-14.33,3.2-28.64,6.52-43.01,9.53-2.77,.58-6.1,.66-8.55-.43-1.25-.56-2.1-4.56-1.45-6.42,4.11-11.87,2.75-23.68,.38-35.53-.28-1.4-1.43-2.62-2.46-4.43-3.46,10.61-5.39,20.51-4.84,30.92,.46,8.86-.1,17.76,.21,26.63,.11,3.18,1.06,6.5,2.48,9.33,.34,.68,4.11-.36,6.3-.62,.64-.08,1.29-.34,1.92-.28,19.15,1.91,37.92,.63,56.51-4.99,8.23-2.49,17.08-2.94,25.64-4.38,1.06-.18,2.21-.51,3.06-1.13,2.82-2.04,5.52-4.25,9.55-7.39-.83-5.42-1.93-12.59-3.01-19.68Z"/><path class="d" d="M878.36,115.65c-10.95,3.42-21.36,6.72-31.81,9.93-5.01,1.54-9.99,3.41-15.13,4.18-4.98,.74-10.15,.45-15.22,.27-3.86-.14-5.03,1.48-4.6,5.1,2.02,16.99,3.79,34.02,6,50.98,1.47,11.24,3.73,22.38,5.31,33.6,2.2,15.62,3.69,31.31-2.59,46.39-1.12,2.68-3.86,5.37-6.52,6.61-9.84,4.58-19.27,3.67-29.02-1.74-6.77-3.76-14.69-5.63-22.26-7.74-10.58-2.95-12.6-5.02-10.22-15.67,2.02-9.05,2.24-17.89,1.99-27.13-.33-12.1,1.93-24.25,2.4-36.41,.32-8.25-.39-16.56-.86-24.82-.52-9.23-1.59-18.43-1.9-27.66-.83-25.21-1.61-50.42-1.95-75.64-.13-9.86,.96-19.73,1.49-29.6,.07-1.29,.3-2.63,.03-3.86-1.88-8.5-.22-10.48,8.22-11.97,11.45-2.02,22.89-4.31,34.43-5.64,9.45-1.09,19.03-1.09,28.56-1.26,4.67-.08,9.47,.02,14.01,.96,8.77,1.83,17.42,4.25,26.08,6.58,3.16,.85,6.15,2.31,9.31,3.14,11,2.9,16.74,11.52,22.47,20.23,.58,.88,1.8,1.35,2.73,2,.52-1.04,1.39-2.04,1.49-3.11,.22-2.48,.12-4.99,.06-7.49-.11-4.61,2.09-6.67,6.69-6.46,16.05,.76,31.8-2.05,47.66-3.83,13.43-1.51,26.96-2.07,40.43-3.2,4.2-.35,5.82,1.79,5.84,5.45,.08,15.82,.08,31.64,0,47.46-.02,3.52-3.03,5.17-5.04,2.58-6.34-8.12-15.06-6.04-23.03-5.61-8.46,.46-16.85,2.43-25.25,3.85-3.11,.52-4.37,2.23-4.78,5.73-1.74,14.65-3.87,29.26-6.16,43.84-1.32,8.36-3.24,16.62-5.06,25.78,6.05-1.31,11.32-2.65,16.67-3.57,5.98-1.02,12.02-1.68,18.03-2.46,3.33-.43,4.99,.74,4.67,4.43-.49,5.57-.7,11.17-1.01,16.76-.16,2.98,.1,6.03-.49,8.92-1.61,7.82-3.02,8.06-11.53,7.64-11.47-.56-23-.14-34.2-.14,.6,9.63,1.18,18.76,1.77,28.29,10.51-2.1,21.03-4.2,31.56-6.31,4.33-.87,8.79-1.37,12.94-2.77,3.41-1.15,6.59-3.17,9.61-5.19,3.17-2.12,6.26-2.55,9.06,0,3.22,2.93,2.89,5.59-.83,8.65-3.79,3.1-1.37,6.96-1.53,10.49-.08,1.78,.74,3.6,.6,5.36-.54,6.67,1.65,12.33,4.58,18.31,4.93,10.05,3.67,19.79-6.06,27.67-13,10.52-27.67,9.82-42.44,7.34-15.13-2.55-29.77-1.57-44.09,3.44-5.38,1.88-9.92,2.26-14.8-1.12-2.79-1.93-6.3-2.81-9.28-4.5-1.06-.6-2.41-2.47-2.16-3.35,3.93-13.83,1.48-27.7,.86-41.61-.43-9.75,.42-19.55,.7-29.33,0-.17,.03-.33,.05-.5,1.02-12.65,1.87-25.32,3.14-37.95,.62-6.2,1.43-12.49,3.22-18.42,1.83-6.03-1.26-10.42-2.82-15.88Zm-119.55,107.61l.73,.06c0,4.66-.24,9.35,.14,13.98,.12,1.44,1.81,3.8,2.99,3.93,6.23,.72,12.53,.98,18.81,1.14,2.59,.06,5.43-1.32,7.74-.64,4.05,1.19,4.81-.4,4.67-3.74-.67-15.76,1.45-31.28,4.02-46.77,.72-4.37,1.28-8.78,1.78-13.18,.72-6.37,1.78-12.75,1.86-19.14,.13-10.65-.98-21.34-.46-31.95,.42-8.51,3.55-11.23,10.9-13.67,8.49-2.82,17.12-5.75,24.87-10.1,8.13-4.56,15.6-10.5,22.72-16.58,2.69-2.3,4.04-6.54,5.2-10.15,1.1-3.41,1.06-7.17,1.7-10.75,2.57-14.49-4.72-31.79-17.33-39.45-15.92-9.67-32.64-17.09-52-15.17-2.45,.24-4.87,.65-7.31,.98-9.9,1.35-19.82,2.64-29.7,4.15-.92,.14-2.31,1.61-2.33,2.49-.23,9.37-.37,18.75-.25,28.12,.23,18.43,.59,36.86,.98,55.29,.26,12.27,.5,24.54,1.05,36.8,.31,6.9,1.33,13.76,1.84,20.65,.49,6.59,1.33,13.24,.96,19.8-.84,14.65-2.35,29.27-3.58,43.9ZM906.71,37.14c8.15,.37,10.58,3.16,10.9,11.04,.18,4.57,1.19,9.11,1.68,13.68,.72,6.66,1.81,13.05-.15,20.05-1.8,6.43-1.11,13.7-.74,20.56,.54,10.19,2.42,20.37-.77,30.43-2.37,7.46-5.11,14.8-7.35,22.29-2.21,7.36-4.19,14.8-5.92,22.28-1.53,6.67-2.68,13.43-3.79,20.18-.77,4.69-1.19,9.44-1.77,14.16-.91,7.3-1.82,14.6-2.81,22.45,3.82-1.05,6.66-1.8,9.49-2.6,11.71-3.31,23.3-7.06,35.77-6.27,9.35,.59,18.72,.73,28.09,1.02,1.42,.04,2.85-.2,4.08-.29,.64-9.24,1.25-18.01,1.86-26.68-7,.66-13.9,.94-20.68,2.04-9.82,1.6-19.53,3.88-29.32,5.69-2.98,.55-5.64-.14-5.36-4.13,.23-3.28,.9-6.55,.84-9.81-.11-5.88,1.3-12.13-4.39-16.77-2.71-2.21-1.95-5.36,1.46-6.44,3.86-1.22,7.92-2.37,11.92-2.48,11.59-.33,23.19-.12,34.82-.12v-26.14c-1.15-.08-2.01-.34-2.79-.17-9.57,2.03-19.17,3.95-28.68,6.26-3.6,.88-6.55-.1-6.05-3.07,2.36-14.02,5.02-27.98,7.35-42,1.69-10.17,3.37-20.37,4.38-30.62,.69-6.96,2.46-9.91,9.57-11.17,4.05-.72,8.28-.5,12.27-1.4,11.63-2.64,23.18-4.77,35.26,.47,0-13.53,.07-26.48-.14-39.43-.01-.9-2.1-2.61-3.11-2.53-7.69,.62-15.34,1.75-23.03,2.41-16.9,1.46-33.81,2.74-50.72,4.09-4.09,.33-8.18,.64-12.16,.95v12.08Z"/><path class="d" d="M210.39,162.74c-.44,7.26-1.53,14.54-1.2,21.77,.74,16.13,2.12,32.24,3.43,48.34,.15,1.86,1.18,3.98,2.48,5.34,4.73,4.96,4.29,7.7-1.19,12.13-1.62,1.31-2,4.58-2.3,7.02-.55,4.49-3.48,5.84-7.26,6.78-10.12,2.51-20.3,4.84-30.24,7.95-7.44,2.33-14.43,6.08-21.87,8.43-1.76,.56-4.5-1.95-7.96-3.61,6.45-3.89,3.28-7.41,2.31-10.81-2.36,0-4.96,.58-7.13-.16-2.32-.79-4.23-2.81-6.32-4.29,2.02-1.4,3.96-2.92,6.09-4.12,.74-.42,1.93-.07,2.97-.07,.65-5.24,1.68-10.16,1.8-15.1,.26-11.07,.34-22.15,0-33.21-.47-15.49-3.78-31.33-1.52-46.36,2.79-18.53,2.37-37.2,5.22-55.63,1.38-8.95,.5-18.3,2.37-27.1,3.44-16.21,1.54-32.46,1.5-48.65-.02-7.85,3.31-13.66,6.56-19.94,2.18-4.22,4.89-7.86,9.85-9.18,6.77-1.79,12.99-.37,18.77,3.21,2.46,1.52,4.38,2.45,7.68,1.37,5.97-1.97,12.69-1.09,18.32-5.09,.97-.69,4.93,1.07,6.03,2.69,1.87,2.76,3.23,5.39,6.34,7.41,2.54,1.65,3.89,5.39,5.34,8.4,4.1,8.52,8.4,16.97,11.86,25.75,7.51,19.03,14.54,38.24,21.79,57.37,.21,.55,.71,1,1.95,2.68-.48-5.64-.93-9.94-1.19-14.25-.71-11.86-2.8-23.87-1.6-35.54,1.35-13.1,1.15-26.6,5.75-39.29,1.61-4.45,6.6-6.93,13.14-6.58,8.43,.45,16.88,.71,25.32,1.02,9.78,.36,19.56,.75,29.34,.96,2.86,.06,3.66,1.28,3.74,3.96,.56,19.67,5.58,38.42,11.32,57.12,2.58,8.4,3.14,17.41,4.64,26.14,1.14,6.63,2.47,13.23,3.47,19.88,.66,4.4,.81,8.86,1.27,13.29,1.4,13.26,3.15,26.5,4.09,39.8,.36,4.99-2.35,10.32-1.48,15.11,1.43,7.92-1.3,15.01-2.5,22.37-.89,5.46-2.29,11.1-4.79,15.98-3.15,6.13-8.02,10.17-15.75,11.49-10.76,1.83-21.07,6.22-31.8,8.32-10.46,2.04-21.18,3.26-31.83,3.57-11.3,.33-22.65-.77-33.98-1.35-4.87-.25-5.8-4.56-6.14-7.82-1.26-12.16-6.95-22.73-11.12-33.87-4.64-12.4-8.98-24.91-13.35-37.41-.69-1.97-.82-4.13-1.21-6.2l-1.04-.03Zm37.58,73.7c.23,0,1.22,.09,2.2-.01,13.08-1.41,26.28-2.17,39.19-4.5,9.89-1.78,19.43-5.52,29.12-8.42,4.14-1.24,5.07-4.37,4.35-8.11-2.24-11.61-.4-23,1.74-34.37,1.75-9.3,4.01-18.54,5.21-27.91,1.8-14.05,2.87-28.2,4.26-42.3,1.28-12.93,3.13-25.84,3.68-38.81,.48-11.41-.43-22.89-.88-34.33-.13-3.19-.8-6.36-1.22-9.54l-1.03,1.52c-12.15-3.15-24.3-6.25-36.43-9.45-4.6-1.21-9.15-2.64-13.97-4.05-.57,3.32-.64,5.32-1.27,7.14-5.63,16.29-6.97,33.06-6.5,50.19,.43,15.64-.25,31.32-.07,46.97,.04,3.82,1.76,7.59,2.3,11.44,.49,3.54,1.98,8.5,.29,10.45-3.22,3.7-1.94,7.34-2.4,11.03-.2,1.62,.03,3.44-.67,4.8-.62,1.22-2.24,1.93-3.42,2.86-.84-1.07-2.23-2.06-2.43-3.24-.89-5.33-2.09-10.73-2.01-16.09,.21-14.77-4.53-27.9-11.51-40.63-5.5-10.03-10.39-20.41-15.25-30.78-3.89-8.31-7.28-16.85-10.98-25.24-4.2-9.53-8.5-19.02-13.1-29.31-7.33,2.45-15.32,5.12-23.27,7.78,.59,1.73,1.54,3.27,1.57,4.82,.15,7.7,.32,15.42,0,23.12-.5,12.24-1.19,24.48-2.16,36.69-.53,6.72-1.66,13.41-2.77,20.07-1.55,9.38-3.36,18.73-5.01,28.09-1.22,6.93-1.93,13.98-3.63,20.78-1.61,6.45-5.27,12.52-6.14,19.01-1.51,11.2-1.13,22.65-2.37,33.91-1.09,9.92-3.25,19.73-5.04,29.56-.45,2.46-1.28,4.86-2.14,8.06,14.18-2.35,26.92-6.17,39.31-11.22,.65-.27,1.3-1.52,1.28-2.31-.12-4.79-.2-9.6-.72-14.36-.91-8.48-3.13-16.94-2.99-25.38,.29-17.18,1.85-34.33,2.73-51.5,.16-3.19,.19-5.95,4.16-6.66,3.95-.71,5.67,2.11,6.23,4.79,1.22,5.8,1.39,11.8,2.37,17.66,2.19,12.97,6.15,25.36,11.75,37.33,6.14,13.14,11.62,26.59,17.62,40.45Zm28.95-219.36c-7.57,10.18-12.54,70.19-5.17,74.61,0-5.01,.06-9.84-.01-14.66-.11-7.64-.51-15.29-.4-22.93,.15-10.43,3.01-20.34,6.15-30.21,.64-2.01-.33-4.52-.56-6.8Zm59.01,6.19c-.17-2.97-.25-4.38-.34-5.99-10.65-.49-20.96-.96-31.26-1.44l-.19,1.61c10.29,1.89,20.58,3.77,31.79,5.82Zm-143.72-4.56c7.86-2.8,15.59-5.54,23.63-8.4-.56-.99-1.22-2.14-1.44-2.54-4.14,.88-7.6,1.58-11.03,2.35-2.69,.6-5.35,1.3-8.03,1.95-3.45,.83-4.52,2.87-3.12,6.65Zm-38.02,251.71c4.63-1.9,8.89-3.65,14.43-5.92-10.47-.91-11.66-.39-14.43,5.92Z"/><path class="d" d="M577.77,102.75c-.29-3.25-.88-6.5-.83-9.75,.23-16.11,.3-32.22,1.12-48.3,.31-6.2,.44-12.77,5.49-17.97,2.14-2.21,3.21-5.75,4.02-8.87,.98-3.8,3.44-4.28,6.65-4.44,11.55-.59,23.14-.85,34.61-2.13,9.25-1.03,18.33-3.56,27.55-5.03,6.11-.97,12.38-.98,18.51-1.89,5.13-.76,10.31-1.78,15.21-3.44,7.13-2.42,13.2-.11,15.27,7.5,2.53,9.29,4.21,18.82,6.16,28.26,1.43,6.89,2.83,13.78,4,20.71,.73,4.31-1.35,5-5.29,3.98-10.98-2.84-22.15-3.26-33.35-1.38-11.77,1.98-23.51,4.23-35.32,5.96-3.33,.49-3.94,1.78-4.1,4.76-.62,11.48-1.52,22.94-2.34,34.77,8.62-1.7,18.08-3.42,27.46-5.47,10.68-2.33,21.27-5.05,31.95-7.36,1.27-.27,3.12,.72,4.21,1.68,.52,.45-.13,2.21-.23,3.38-.33,4.07-1.17,8.17-.87,12.19,.61,8.18,1.69,16.33,2.85,24.45,.87,6.09-2.79,9.6-8.6,7.64-14.82-5-29.52-2.85-44.21,.53-1.54,.35-3.04,.89-4.04,1.18,1.28,6.17,2.49,11.99,3.82,18.4,7.19,0,15.15,.58,23-.14,10.93-1,21.77-2.98,32.65-4.54,.33-.05,.68,.06,1-.03,9.52-2.6,9.6-1.64,11.38,9.04,2.82,16.96,6.39,33.7,11.5,50.16,2.49,8.01,1.38,16.71-2.94,23.83-2.23,3.68-7.31,6.01-11.56,7.99-7.06,3.3-14.32,6.35-21.77,8.56-17.12,5.08-34.76,5.96-52.5,5.03-1.79-.09-3.59-.65-5.31-1.21-14.67-4.77-29.42-9.21-44.89-10.63-.29-.03-.61,.18-1.48,.47l1.43,9c-.71,.32-1.42,.64-2.13,.96-1.63-2.47-4.71-5.03-4.59-7.41,.3-5.63-3.35-9.38-4.79-14.08-.98-3.2-1.29-6.72-1.26-10.09,.06-5.87,.61-11.73,1.02-18.59-4.88,3.83-8.55,7.14-12.62,9.85-11.71,7.78-24.32,13.84-37.99,17.07-8.28,1.95-16.87,2.62-25.34,3.69-10.72,1.36-21.34,2.69-31.73,6.28-7.02,2.43-14.8,3.19-22.3,3.58-7.91,.41-15.92-.12-23.8-1.05-2.61-.31-5.71-2.63-7.18-4.93-1.81-2.81-3.25-6.6,.4-9.74,.55-.48,.81-1.71,.68-2.51-1.64-10.07-2.54-20.04-1.78-30.38,1.03-13.98-.07-28.1,.44-42.13,.41-11.35,2.08-22.64,2.71-33.99,.3-5.4-.71-10.86-.79-16.3-.14-10.55-.02-21.1-.05-31.65-.03-13.09,.23-26.19-.31-39.26-.24-5.98-1.91-11.93-3.25-17.82-1.45-6.35-.55-7.65,5.92-7.71,17.69-.16,34.38,4.16,50.55,11.04,10.54,4.48,21.45,8.19,31.71,13.24,8.49,4.18,16.28,9.81,24.37,14.81,7.24,4.48,14.6,8.79,21.69,13.49,13.67,9.06,23.51,21.31,30.2,36.76Zm15.18-83.71c-4.08,7.17-4.68,14.84-3.02,23.92,2.36,12.95,2.53,26.42,2.39,39.66-.14,13.33-2.04,26.63-2.67,39.96-.3,6.24,.76,12.54,.82,18.82,.04,4.27-.84,8.56-.81,12.83,.03,5.11,.74,10.21,.87,15.33,.41,15.76,.71,31.53,.99,47.3,.06,3.15,.29,4.59,4.52,3.84,9.46-1.67,18.78-3.64,28.77-2.57,12.28,1.31,24.8,.16,37.21,.35,13.4,.21,25.98-3.67,38.58-7.4,1.44-.43,3.03-3.09,3.12-4.79,.19-3.92-.82-7.89-.77-11.83,.13-10,.58-19.99,.91-30.21-1.9,0-4.22-.2-6.5,.03-15.27,1.55-30.51,3.51-45.8,4.68-8.93,.68-10.83-1.56-10.6-10.56,.13-4.89-.52-9.11-4.62-12.43-1.12-.91-1.25-3.05-2.02-5.11,20.19-6.29,39.7-9.95,60.69-3.5-1.22-12.89-2.42-25.46-3.62-38.09-2.99,.55-5.58,.93-8.11,1.51-17.5,4.04-34.99,8.17-52.52,12.11-1.16,.26-3.08-.48-3.82-1.41-.65-.81-.43-2.65-.05-3.87,.82-2.63,2.66-5.1,2.9-7.74,.95-10.5,1.69-21.04,1.98-31.58,.12-4.52,2.34-6.12,6.1-6.85,4.33-.85,8.64-1.87,13-2.49,13.46-1.92,26.91-4.12,40.45-5.32,6.26-.55,12.7,.97,18.72,1.52-1.77-9.12-3.37-18.14-5.3-27.09-1.4-6.53-3.14-12.99-4.92-19.43-.65-2.34-1.72-3.65-5.02-2.84-7.61,1.87-15.41,3.04-23.17,4.24-6.96,1.08-13.99,1.71-20.95,2.76-6.16,.93-12.23,2.58-18.41,3.19-12.85,1.26-25.76,2.03-39.32,3.05Zm-173.38,.09c.17,1.7,.25,2.95,.42,4.18,.83,6.01,2.28,12.01,2.43,18.03,.59,24.09,.5,48.2,1.2,72.28,.52,17.94-2.39,35.58-3.45,53.36-1.13,19.07-.52,38.24-.56,57.37,0,1.77,.37,3.71,1.18,5.25,.64,1.2,2.27,2.76,3.37,2.69,6.07-.37,12.35-.36,18.1-2.04,11.44-3.33,22.48-8.05,33.89-11.52,13.62-4.14,27.45-7.56,41.19-11.29,4.89-1.33,9.71-3.23,14.69-3.87,9.76-1.26,19.4-3.01,26.6-10.12,5.31-5.24,11.01-10.95,13.89-17.6,5.61-12.95,5.35-27.38,6.1-41.24,1.13-20.91-8.73-38.47-21.88-53.41-7.29-8.28-17.94-13.72-27.4-19.94-10.67-7.01-21.27-14.39-32.71-19.92-13.65-6.6-28.09-11.59-42.31-16.95-11.01-4.15-22.61-4.91-34.76-5.26Zm167.04,43.09l-.65,.07v25.14h.65v-25.21Z"/><path class="d" d="M19.61,21.3c.61-7.68,3.25-9.49,9.89-6.31,4.14,1.98,7.77,5,11.74,7.36,1.18,.7,2.73,.96,4.14,1.05,16.12,.98,32-.27,47.2-6.13,2.59-1,5.02-3.13,6.82-5.32,4.59-5.59,10.77-7.14,17.42-7.44,3.92-.18,8.82,4.85,8.96,8.97,.15,4.54-1.79,7.37-6.84,7.71-4.07,.27-6.11,1.6-5.66,6.96,1.11,12.95,.61,26.03,1.35,39.02,.59,10.19,2.34,20.3,3.1,30.48,1.15,15.37,2.4,30.76,2.55,46.15,.07,6.91-3.01,13.79-3.58,20.77-.6,7.32,.1,14.74,.24,22.11,.06,2.95,.26,5.91,.2,8.86-.08,3.64-1.14,7.43-.45,10.88,2.8,13.96-2.72,25.84-8.69,37.64-2.57,5.07-5.19,10.19-8.52,14.74-1.63,2.22-4.81,4.08-7.55,4.55-7.31,1.25-14.27,1.75-21.69-2.38-4.61-2.56-11.7-1.16-17.62-.75-7.52,.53-14.99,1.82-22.48,2.87-2.1,.29-4.19,.73-6.22,1.33-9.15,2.73-17.12-2.98-17-12.53,.09-7.28,.9-14.55,.89-21.83-.01-11.11-.68-22.21-.66-33.32,.02-13.6,.7-27.2,.67-40.79-.02-12.19-.04-24.43-1.15-36.55-.76-8.26-3.39-16.35-5.17-24.53-.24-1.12-.56-2.26-.59-3.39-.37-13.48-1.18-26.97-.83-40.44,.19-7.11,2.04-14.27,3.88-21.22,1.47-5.56,9.98-9.92,15.64-8.53ZM63.71,236.39c1.42-3.9,2.49-6.95,3.64-9.96,1.47-3.82,4-7.52,4.35-11.42,1.3-14.79-1.68-29.74,2.08-44.51,1.89-7.44,1.57-15.59,4.27-22.65,6.1-15.96,9.17-32.21,8.9-49.22-.05-3.43,.63-6.89,1.11-10.32,1.57-11.19,2.9-22.43,4.92-33.55,1.48-8.17,3.95-16.16,5.84-24.26,.29-1.26,.23-2.96-.42-3.97-.52-.8-2.32-1.37-3.34-1.14-14.44,3.3-29.09,3.89-43.82,3.69-2.78-.04-6.26-1.02-8.13,.28-1.57,1.09-1.25,4.88-1.8,7.47-.07,.32-.3,.59-.4,.91-7.35,23.68-8.97,48.18-10.31,72.7-.3,5.41,1.34,10.97,.75,16.32-1.36,12.37-3.48,24.65-5.39,36.95-1.76,11.33-4.48,22.59-5.24,33.99-.92,13.89-.26,27.89-.17,41.84,.01,2.19,.65,4.38,.93,6.14,14.8-3.26,28.99-6.39,42.2-9.3Z"/><path class="d" d="M1085.76,53.72c.44-5.94,.79-10.7,1.14-15.47,.4-5.49,4.43-9.45,9.91-9.59,4.95-.13,9.9-.01,14.84-.25,10.22-.49,20.43-1.25,30.65-1.66,3.41-.14,4.94,2.4,5.11,5.48,.51,9.15,.71,18.32,1.3,27.47,.32,4.91,1.61,9.77,1.75,14.67,.52,17.44,.35,34.91,1.2,52.33,.69,14.13,2.42,28.22,3.81,42.31,.88,9,1.09,18.19,3.22,26.9,2.23,9.12,6.24,17.82,9.74,26.6,3.49,8.76,3.94,16.82-2.8,25.57-5.62,7.3-12.43,9.02-20.47,8.95-8.28-.07-16.56-.63-24.85-.92-1.83-.06-3.79-.28-5.47,.25-10.91,3.47-22.99-5.55-27.07-16.24-4.21-11.02-9.81-21.51-14.83-32.22-.26-.54-.78-.96-1.92-2.3-.96,3.66-2.12,6.48-2.38,9.38-.87,9.88-2.13,19.8-1.89,29.68,.21,8.83-7.16,17.28-18.98,14.06-5.95-1.62-12.29-1.8-18.46-2.6-.49-.06-1.17-.18-1.47,.08-4.62,3.96-6.12,.62-8.64-2.89-2.27-3.17-2.07-6.09,.27-7.63,4.71-3.1,3.96-7.88,4.13-11.83,.56-13.26,.2-26.55,.37-39.83,.09-7.26,1.07-14.55,.7-21.78-.51-9.83-1.97-19.62-2.95-29.43-.66-6.61-1.6-13.23-1.75-19.86-.52-22.09-.59-44.2-1.15-66.29-.19-7.55-1.53-15.07-1.85-22.62-.08-1.94,1.37-4.24,2.72-5.88,1.55-1.88,3.56-3.78,5.77-4.61,2.67-1,6.18-1.98,8.59-1.06,11.32,4.33,22.82,7.32,34.99,6.9,3.46-.12,5.26,.91,6.7,4.23,2.84,6.54,6.33,12.8,10.04,20.12Zm-57.66,191.46c4.39,.23,8.48-.11,12.28,.79,4.61,1.09,5.62-.49,5.48-4.65-.43-12.66-1.46-25.36-.75-37.97,.69-12.27,2.5-24.59,5.19-36.58,2.56-11.42,2.82-22.34-1.69-33.1-2.56-6.11-1.07-12.08,.86-17.48,1.15-3.22,5.23-6.27,8.68-7.59,5.2-1.99,11.4-1.51,16.45-3.72,5.01-2.19,8.29-.71,12.55,2.64,0-10.64,1.21-20.84-.35-30.59-1.53-9.54-5.42-18.81-9.14-27.85-2.89-7.04-5.05-15.49-15.71-15.06-10.05,.41-19.38-2.77-28.54-6.59-1.35-.56-3.52-.36-4.81,.37-2.52,1.43-4.69,3.48-6.38,4.78,.79,10.22,1.97,19.94,2.22,29.68,.59,23.59,.75,47.18,1.11,70.78,.02,1.14,.34,2.27,.5,3.41,1.16,8.61,3.26,17.21,3.3,25.82,.14,26.59-.49,53.18-.85,79.77-.01,.97-.25,1.94-.41,3.14Zm73.3-205.22c.74,14.12,1.46,27.06,2.04,40,.08,1.93-.86,3.89-.81,5.83,.18,6.94,.8,13.87,.83,20.8,.02,5.1-3.8,8.02-8.97,7.63-1.06-.08-2.16,.22-4.27,.47,2.48,5.98,4.21,11.67,7.08,16.71,4.95,8.71,6.3,18.16,7.07,27.8,.52,6.5-.22,13.19,1.01,19.52,1.86,9.58,5.1,18.88,7.43,28.38,1.16,4.73,1.34,9.7,2.52,14.43,.31,1.22,2.69,2.69,4.15,2.72,4.26,.09,8.56-.87,12.81-.71,4.42,.17,5.61-1.39,5.71-5.73,.41-17.94,1.22-35.87,1.92-53.8,.04-.97,.44-1.91,.58-2.88,1.14-8.12,3.14-16.23,3.22-24.36,.2-19.58-.09-39.19-.97-58.76-.56-12.61-2.72-25.14-3.73-37.74-.34-4.26-2.53-4.47-5.61-4.12-5.22,.6-10.44,1.29-15.66,1.91-5.66,.67-11.33,1.31-16.35,1.88Z"/><path class="d" d="M324.01,821.77c6.89-.96,12.53-1.72,18.17-2.54,10.86-1.58,21.72-3.26,32.59-4.77,5.57-.78,11.18-1.71,16.77-1.7,2.19,0,4.86,2,6.4,3.85,1.02,1.22,1.26,4.32,.41,5.68-7.51,12.02-9.2,25.42-9.78,39.1-.18,4.14-2.44,4.67-5.95,4.65-11.19-.05-22.38,0-33.56,.38-10.54,.36-21.08,1-31.59,1.88-9.97,.84-19.89,2.16-29.84,3.24-9.51,1.03-18.75,4.77-28.65,.79-8.31-3.33-11.45-8.73-11.43-17.51,.03-10.1,.43-20.25,1.48-30.29,.67-6.41,3.54-11.74,9.95-15.3,7.41-4.12,14.12-9.54,21-14.58,5.97-4.37,12.14-8.59,17.44-13.69,3-2.89,4.74-7.28,6.51-11.24,4.41-9.87,7.97-20.15,12.88-29.75,5.81-11.39,7.71-23.7,9.93-35.91,1.61-8.89-.23-10.97-8.9-13.38-1.41-.39-3.34-.33-4.59,.34-11.59,6.26-21.9,14.07-27.66,26.34-2.82,6.01-5.4,12.19-3.25,19.39,1.38,4.64-1.7,8.32-6.79,9.85-4.49,1.35-9.16-.29-10.37-4.41-2.24-7.62-8.13-12.14-13.23-17.51-3.25-3.43-5.82-7.68-7.94-11.94-1.85-3.72-3.7-7.98-3.64-11.97,.09-5.54,1.03-11.5,3.41-16.4,1.5-3.1,6.32-4.57,9.61-6.84,1.39-.96,2.98-1.88,3.91-3.21,4.88-7,8.84-14.78,14.49-21.07,8.96-9.97,17.69-19.84,24.25-31.72,5.91-10.69,18.4-13.79,29.73-9.12,5.21,2.15,10.9,3.25,15.93,5.73,7.27,3.59,14.46,7.54,21.11,12.16,8.77,6.08,15.83,14.03,20.73,23.6,5.25,10.26,8.52,21.07,10.16,32.63,3.18,22.33-7.43,40.14-17.97,57.86-12.92,21.73-26.57,43.03-40.2,64.32-2.81,4.38-6.93,7.92-11.52,13.05Zm-49.91,36.42c1.82,0,4.77-.3,7.65,.05,12.4,1.5,24.73,3.93,37.17,4.58,10.32,.54,20.76-.84,31.13-1.53,10.76-.71,21.51-1.61,32.56-2.45,1.98-12.79,2.97-26.99,11.37-39.75-2.05,0-3.06-.09-4.04,.01-12.08,1.33-24.17,2.55-36.23,4.08-11.37,1.44-22.68,3.32-34.06,4.71-1.68,.2-3.95-.83-5.18-2.06-.68-.68-.15-3.15,.51-4.47,1.02-2.02,2.55-3.8,4-5.58,4.78-5.86,9.9-11.47,14.34-17.58,2.87-3.95,4.66-8.66,7.11-12.92,12.28-21.31,24.88-42.43,36.79-63.93,4.71-8.49,7.38-18.01,6.59-27.94-.63-7.99-1.97-15.91-2.9-23.88-2.77-23.8-19.06-36.1-38.66-45.65-3.06-1.49-5.04-1.06-6.82,2.09-4.49,7.97-4.57,7.75-14.1,5.46-3.67-.88-8-1.41-10.55,2.24-8.32,11.91-20.62,19.04-31.91,27.44-1.89,1.41-3.67,3.54-4.5,5.72-4.59,12.13-2.46,24.85-2.74,37.35-.02,.93,.83,1.88,1.59,3.48,6.29-12.81,15.47-22.33,25.23-31.28,5.55-5.09,11.94-8.23,20.02-8.07,10.53,.21,18.32,5.86,26.04,11.67,8.99,6.77,10.73,14.15,7.53,25.28-1.89,6.57-3.16,13.33-4.53,20.04-1.64,8-1.94,16.51-4.93,23.95-3.5,8.74-9.64,16.37-13.96,24.83-7.36,14.41-18.61,24.97-32.01,33.43-6.65,4.2-13.75,7.69-20.66,11.47-2.64,1.44-4.84,2.74-4.45,6.6,1.07,10.6,1.7,21.25,2.56,32.63Zm-6.7-188.51c-3.5,3.03-7.38,5.52-4.26,11.32,2.21,4.11-.36,7.88-4.64,9.22-1.06,.33-1.96,2.21-2.27,3.54-.32,1.37,.23,2.92,.3,4.4,.4,8.39,3.29,12.07,12.23,15.1-4.5-14.52-3.39-28.96-1.36-43.58Z"/><path class="d" d="M974.54,532.95c.85-8.17,2.56-15.46,2.13-22.62-.68-11.45-2.79-22.81-4.29-34.21-.51-3.91-1.57-7.84-1.39-11.72,.66-13.85-2.81-27.15-4.5-40.7-2.44-19.52-3.71-39.19,3.18-58.4,3.77-10.51,5.89-21.66,10.27-31.88,7.39-17.24,17.89-25.97,38.64-25.93,10.72,.02,21.44,.58,32.16,.96,5.04,.18,8.03,4.72,7.82,11.15-.18,5.54-.23,11.1,.03,16.63,.52,11.22,2.08,22.46,1.71,33.64-.38,11.61-2.53,23.17-3.92,34.75-.27,2.27-.77,4.53-.83,6.8-.4,13.94-.19,27.91-1.18,41.8-.96,13.41-3.54,26.69-4.63,40.1-.76,9.27-.49,18.65-.11,27.96,.25,6.18-1.61,10.43-7.51,12.81-11.36,4.58-22.51,9.71-34.03,13.83-7.54,2.69-15.29,1.81-22.45-2.39-4.34-2.55-9-4.59-13.19-7.34-3.01-1.98-6.18-4.34-8-7.31-1.49-2.44-1.28-6.02-1.41-9.11-.03-.71,1.64-1.5,2.53-2.25,.75,.92,2.3,2.04,2.13,2.73-1.23,4.94,1.75,7.36,6.83,10.71Zm66.33-13.81c-1.78-2.06-3.67-3.24-3.85-4.63-.68-5.22-.83-10.52-1.13-15.79-.68-11.95,.82-23.73,4-35.19,3.01-10.86,2.59-21.85,1.79-32.75-.71-9.65,.92-18.27,5-27.02,2.24-4.79,2.74-10.73,2.75-16.16,.02-10.56-2.06-21.24-1.05-31.66,1.06-10.94-1.3-21.09-2.72-31.58-3.74,0-7.04-.09-10.33,.03-3.29,.12-6.58,.49-9.87,.69-6.38,.39-7.15,1.64-4.76,7.69,.41,1.05,.72,2.19,.8,3.31,1.11,14.44-2.12,28.16-7.21,41.51-1.57,4.1-4.47,7.77-5.58,11.95-1.88,7.08-2.78,14.41-4.18,21.62-1.28,6.59-2.82,13.14-3.96,19.76-1.49,8.69-1.48,17.85-4.37,26.01-2.44,6.87-2.52,13.44-2.66,20.29-.04,2,.07,4-.07,5.99-.95,14.08-1.88,28.15-2.98,42.22-.28,3.56,1.37,5.18,4.48,5.96,7.72,1.94,15.59,2.47,23.16,.11,6.2-1.93,11.84-5.65,18.04-7.55,3.65-1.12,5.07-2.47,4.7-4.81Zm7.28-54.08c-.68-.14-1.36-.29-2.04-.43-1.44,10.61-2.87,21.23-4.31,31.84l1.97,.27c1.46-10.56,2.92-21.12,4.38-31.67Z"/><path class="d" d="M1211.16,196.7c2.12-7.86,4.59-15.65,6.29-23.61,2.15-10.06,4.55-20.2,5.23-30.41,.89-13.47,.43-27.04,.1-40.56-.11-4.68-1.5-9.34-2.42-13.98-.64-3.24-2.3-5.05-6.06-5.17-5-.16-7.51-4.33-8.76-8.22-1.35-4.23-1.68-9.04-1.25-13.49,.2-2.11,2.83-4.59,4.97-5.82,8.1-4.63,16.88-4.44,25.75-2.69,3.05,.6,6.14,1.67,9.17,1.55,15.53-.63,24.45,9.09,32.37,20.32,6.96,9.87,10.6,21.16,12.95,32.87,2.75,13.7,5.72,27.39,7.61,41.22,.75,5.48-.3,11.59-2,16.95-3.48,10.97-8.94,21.33-19.2,27.23-5.88,3.38-13.11,4.92-19.94,6.03-12.13,1.97-24.31,3.32-35.44,9.14-4.14,2.16-7.87-.82-8.58-6.67-.18-1.48-.03-2.99-.03-4.49-.25-.06-.5-.13-.75-.19Zm6.66,5.53c7.73-2.02,15-3.98,22.29-5.8,11.55-2.89,24.26-1.16,33.51-12.17,6.04-7.19,12.46-13.78,14.11-23.17,.84-4.81,1.51-10.88-.65-14.77-8.51-15.32-18.15-30.01-27.45-44.88-.91-1.46-2.2-3.07-3.7-3.7-8.87-3.7-17.84-7.17-26.82-10.61-.97-.37-2.2-.05-3.23-.05,2.28,16.11,3.89,31.78,2.84,47.78-1.09,16.66-4.06,32.79-8.71,48.79-1.74,6-5.44,12.25-2.19,18.57Z"/><path class="d" d="M1333.14,458.81c-.28,12.15-4.87,21.41-15.4,27.8-6.06,3.68-11.74,8.02-17.43,12.27-6.5,4.86-14.11,6.48-21.79,6.59-2.76,.04-6.45-2.88-8.16-5.47-2.83-4.29-4.67-9.32-6.4-14.22-1.45-4.1-.11-7.27,4.11-9.53,5.05-2.7,10.11-5.69,14.36-9.46,1.84-1.64,2.72-5.74,2.22-8.39-2.99-16.12-1.73-31.67,4.19-47.01,3.57-9.23,5.35-18.75,1.44-28.57-1.38-3.47,.67-5.46,4.24-5.36,7.54,.21,13.71,3.85,18.55,9.15,8.47,9.28,10.59,21.19,12.53,33.13,1.25,7.74,3.15,15.37,4.66,23.06,1.04,5.31,1.92,10.66,2.88,15.99Zm-43.28,3.13c3.23-1.8,5.51-3.73,8.09-4.34,3.65-.86,5.03-2.88,5.05-6.25,.03-4.24-.28-8.49-.06-12.72,.54-10.42,1.7-20.83,1.81-31.25,.07-6.51-.84-13.21-6.8-18.6-.37,4.98-.11,9.34-1.11,13.39-1.68,6.8-4.22,13.39-6.28,20.1-3.93,12.85-1.38,25.8-.7,39.66Z"/><path class="d" d="M351.85,355.28c2.87,1.06,5.59,2.06,8.42,3.1-.47-6.17-.9-12.13-1.39-18.09-.35-4.22,1.43-5.87,5.75-5.94,10.05-.16,19.44,1.42,26.54,9.25,2.15,2.37,3.88,5.34,5.07,8.33,1.7,4.28-.41,9.75-4.89,11.09-12.75,3.82-25.64,5.61-38.26-.85-3.16-1.61-4.28-3.53-1.23-6.89Zm11.96-16.2c.28,4.26,.43,7.7,.75,11.12,.83,8.74,2.5,10.32,11.18,10.2,2.92-.04,5.91-.32,8.73-1.02,2.21-.55,5.82-1.72,5.98-2.98,.33-2.59-.46-6.07-2.14-8.05-6.28-7.44-15-9.09-24.51-9.26Z"/><path class="d" d="M529.51,401.27c.14,4.17-3.4,7.76-7.03,7.66-9.35-.28-18.74-.97-28.05-.39-4.14,.26-4.5-2.17-5.09-4.3-.25-.89,1.9-3.26,3.31-3.65,4.53-1.26,5.27-4.47,5.22-8.33-.17-14.2,2.07-28.07,5.94-41.69,.3-1.06,.68-2.56,1.47-2.94,2.08-1.02,4.41-2.06,6.62-2.02,.91,.02,2.02,2.67,2.62,4.28,2.46,6.57,5.13,13.1,7.03,19.83,2.97,10.51,5.37,21.17,7.96,31.56Zm-19.18-49.89c-.6,.09-1.2,.19-1.8,.28-3.6,15.59-6.51,31.26-5.88,47.82h20.42c-4.44-16.75-8.59-32.43-12.74-48.1Z"/><path class="d" d="M506.02,803.53c-17.05,.12-24.14-7.2-30.24-20.86-4.44-9.94-8.87-19.96-12.1-30.32-4.87-15.59-4-31.24,3.3-46.07,5-10.15,14.13-16.23,23.38-22.03,.97-.61,2.63-1.07,2.8-1.86,2.08-9.49,10.64-8.02,16.93-9.72,6.44-1.74,13.2-2.41,19.87-3.11,16.41-1.73,30.84,7.54,36.44,23.93,5.61,16.41,4.48,32.9-.6,49.33-2.12,6.86-2.44,14.5-5.6,20.77-5.22,10.33-11.3,20.47-18.6,29.4-3.45,4.22-10.34,6.22-16.06,7.82-6.27,1.75-12.99,1.89-19.52,2.73Zm39.59-67.34c-.92-7.68-1.69-15.37-2.79-23.02-.93-6.44-7.22-11.91-13.5-11.28-7.26,.73-14.64,.2-21.97,.19-6.76,0-10.88-3.71-11.34-10.42-.17-2.53-1.11-4.33-3.47-2.45-6.52,5.2-13.81,9.96-18.83,16.42-8.62,11.1-8.54,24.96-6.82,38.03,2.02,15.38,8.32,29.64,16.77,42.71,2.74,4.25,5.37,8.79,11.35,10.23,11.19,2.7,20.96-1.01,30.89-5.12,5.65-2.33,8.54-6.67,11.1-11.91,6.73-13.75,8.07-28.35,8.6-43.38Z"/><path class="d" d="M794.6,63.13c0,3.83-.29,7.69,.15,11.47,.16,1.38,1.96,3.51,3.22,3.67,7.4,.95,14.37-1.05,20.87-4.48,4.02-2.13,5.59-9.44,3.8-16.14-2.26-8.47-10.78-14.85-20.8-12.56-1.27,.29-2.58,1.04-3.77,.88-1.4-.2-2.7-1.17-4.04-1.8,.87-1.03,1.53-2.55,2.63-3.01,11.88-5.04,26.73,.55,30.81,14.47,.55,1.87,.83,3.84,1.06,5.78,1.64,13.75-5.91,18.73-21.68,21.67-4.27,.8-8.58,1.41-12.91,1.83-2.28,.22-4.14-.51-4.07-3.51,.12-4.83,.26-9.68-.04-14.49-.25-4.06-1.29-8.06-1.62-12.12-.15-1.86,.3-3.9,1.02-5.64,.25-.61,2.31-.97,3.24-.63,.89,.33,1.92,1.69,1.98,2.64,.22,3.99,.09,7.99,.09,11.99h.07Z"/><path class="d" d="M472.48,81.47c11.7,1.35,22.86,4.36,32.74,11.1,4.58,3.13,9.21,6.21,13.59,9.6,8,6.19,10.49,15.62,12.33,24.67,1.67,8.19,4.11,16.41,2.57,25.26-2.54,14.54-8.4,26.95-21.13,34.74-17.98,10.99-37.89,17-58.64,20.22-6.2,.96-11.56-1.38-15.8-5.63-1.57-1.58-1.87-4.52-2.53-6.9-1.16-4.22-1.82-8.61-3.31-12.7-1.65-4.53,.11-7.37,3.72-9.43,4.57-2.61,9.12-5.48,14.04-7.18,5.3-1.83,6.39-4.79,6.4-10.1,.04-15.17,.75-30.35,1.47-45.52,.34-7.22,1.4-14.4,1.94-21.62,.39-5.25,4.82-5.18,8.16-6.43,1.31-.49,2.97-.08,4.47-.08Zm-11.88,76.75c10.57-1.77,19.98-2.91,29.14-5.13,3.04-.74,6.65-3.76,7.79-6.61,1.79-4.48,1.95-9.69,2.34-14.63,.8-10.07-2.9-18.73-9.77-25.81-6.95-7.16-15.39-12.29-26.21-16.12-1.11,23.11-2.21,45.8-3.29,68.3Z"/></g></g></g></svg>